<?xml version="1.0" encoding="utf-8"?>
<svg viewBox="205.111 195.4072 213.836 106" xmlns="http://www.w3.org/2000/svg">
  <path d="M 36.011 79.565 Q 36.585 79.611 37.193 79.726 Q 37.801 79.841 38.375 79.841 L 38.605 79.841 Q 38.674 79.772 38.823 79.611 Q 38.972 79.451 39.155 79.279 Q 39.339 79.106 39.488 78.957 Q 39.637 78.808 39.706 78.739 Q 39.752 78.739 40.05 78.544 Q 40.349 78.349 40.509 78.257 Q 40.716 78.166 41.083 77.982 Q 41.45 77.798 41.657 77.615 Q 41.795 77.477 42.093 77.167 Q 42.391 76.857 42.69 76.536 Q 42.988 76.215 43.229 75.928 Q 43.47 75.641 43.516 75.549 Q 43.883 75.067 44.124 74.459 Q 44.365 73.851 44.48 73.197 Q 44.594 72.543 44.64 71.9 Q 44.686 71.258 44.686 70.707 Q 44.686 70.317 44.457 70.019 Q 44.227 69.72 44.044 69.33 Q 43.998 69.307 43.94 69.158 Q 43.883 69.009 43.803 68.848 Q 43.722 68.688 43.642 68.55 Q 43.562 68.412 43.516 68.412 Q 43.516 68.32 43.321 68.125 Q 43.126 67.93 43.08 67.884 Q 43.08 67.861 43.011 67.724 Q 42.942 67.586 42.862 67.414 Q 42.781 67.242 42.701 67.104 Q 42.621 66.966 42.575 66.943 Q 42.575 66.92 42.46 66.84 Q 42.345 66.76 42.196 66.657 Q 42.047 66.553 41.898 66.461 Q 41.749 66.37 41.657 66.301 Q 41.611 66.255 41.473 66.198 Q 41.336 66.14 41.313 66.14 Q 41.29 66.117 41.221 66.014 Q 41.152 65.911 41.083 65.807 Q 41.014 65.704 40.945 65.612 Q 40.877 65.521 40.877 65.498 Q 40.831 65.498 40.762 65.429 Q 40.739 65.406 40.716 65.36 Q 40.647 65.337 40.487 65.291 Q 40.326 65.245 40.142 65.188 Q 39.959 65.13 39.787 65.085 Q 39.614 65.039 39.546 65.039 Q 39.523 65.039 39.385 65.016 Q 39.247 64.993 39.087 64.958 Q 38.926 64.924 38.788 64.901 Q 38.651 64.878 38.605 64.878 Q 38.559 64.855 38.398 64.809 Q 38.237 64.763 38.054 64.694 Q 37.87 64.626 37.698 64.58 Q 37.526 64.534 37.48 64.511 L 37.297 64.511 L 37.021 64.511 Q 36.975 64.58 36.838 64.775 Q 36.7 64.97 36.539 65.176 Q 36.379 65.383 36.229 65.566 Q 36.08 65.75 36.011 65.819 Q 35.966 65.911 35.897 66.037 Q 35.828 66.163 35.759 66.301 Q 35.667 66.461 35.575 66.622 L 35.575 69.468 Q 35.346 69.904 35.266 70.409 Q 35.185 70.914 35.185 71.418 Q 35.185 71.625 35.185 71.832 Q 35.185 72.038 35.231 72.222 Q 35.185 72.268 35.082 72.44 Q 34.979 72.612 34.956 72.658 L 34.956 72.818 L 34.956 73.002 Q 34.956 73.254 34.99 73.679 Q 35.025 74.104 35.048 74.505 Q 35.07 74.907 35.093 75.217 Q 35.116 75.526 35.116 75.549 Q 35.116 75.595 35.162 75.721 Q 35.208 75.848 35.266 76.008 Q 35.323 76.169 35.369 76.307 Q 35.415 76.444 35.438 76.467 L 35.438 77.133 L 35.438 77.775 Q 35.438 77.821 35.357 77.925 Q 35.277 78.028 35.231 78.143 Q 35.231 78.166 35.093 78.349 Q 34.956 78.533 34.956 78.579 L 34.956 78.647 L 34.956 78.739 Q 34.956 78.762 35.025 78.831 L 35.116 78.923 Q 35.139 78.923 35.346 78.831 Q 35.552 78.739 35.575 78.739 Q 35.897 78.739 35.897 79.015 Q 35.897 79.106 35.885 79.164 Q 35.874 79.221 35.874 79.313 Q 35.874 79.52 36.011 79.565 Z M 26.166 92.899 Q 26.143 92.807 26.315 92.601 Q 26.487 92.394 26.74 92.199 Q 26.992 92.004 27.245 91.843 Q 27.497 91.683 27.612 91.683 Q 27.681 91.66 27.91 91.637 Q 28.14 91.614 28.404 91.591 Q 28.668 91.568 28.897 91.545 Q 29.127 91.522 29.195 91.522 Q 29.241 91.476 29.482 91.304 Q 29.723 91.132 29.838 91.04 Q 29.861 90.971 29.999 90.856 Q 30.136 90.742 30.182 90.673 Q 30.182 90.581 30.194 90.34 Q 30.205 90.099 30.228 89.812 Q 30.251 89.525 30.286 89.273 Q 30.32 89.021 30.343 88.929 Q 30.343 88.906 30.389 88.722 Q 30.435 88.539 30.481 88.321 Q 30.527 88.103 30.572 87.908 Q 30.618 87.712 30.618 87.667 L 30.618 87.575 Q 30.618 87.231 30.481 86.886 Q 30.343 86.542 30.343 86.152 Q 30.343 85.67 30.481 85.188 Q 30.618 84.706 30.618 84.178 L 30.618 83.972 Q 30.618 83.88 30.595 83.387 Q 30.572 82.893 30.538 82.331 Q 30.504 81.769 30.481 81.275 Q 30.458 80.782 30.458 80.644 L 30.458 80.346 Q 30.458 80.139 30.561 79.933 Q 30.664 79.726 30.802 79.531 Q 30.94 79.336 31.043 79.118 Q 31.146 78.9 31.146 78.647 Q 31.146 78.441 31.043 78.211 Q 30.94 77.982 30.94 77.775 Q 30.94 77.477 31.1 77.225 Q 31.261 76.972 31.261 76.674 Q 31.261 76.192 31.123 75.503 Q 30.986 74.815 30.986 74.241 Q 30.94 74.035 30.94 73.53 Q 30.94 73.025 30.94 72.451 Q 30.94 71.877 30.94 71.361 Q 30.94 70.845 30.986 70.638 Q 30.802 70.363 30.71 70.03 Q 30.618 69.697 30.618 69.399 L 30.618 69.33 Q 30.641 69.307 30.687 69.181 Q 30.733 69.055 30.802 68.917 Q 30.871 68.779 30.917 68.665 Q 30.963 68.55 30.986 68.527 L 30.986 67.701 Q 30.986 67.127 30.825 66.553 Q 30.664 65.98 30.182 65.658 Q 30.068 65.658 29.804 65.612 Q 29.54 65.566 29.264 65.521 Q 28.989 65.475 28.737 65.429 Q 28.484 65.383 28.392 65.36 Q 28.369 65.314 28.186 65.234 Q 28.002 65.153 27.956 65.153 Q 27.91 65.153 27.681 65.176 Q 27.451 65.199 27.245 65.199 Q 27.015 65.199 26.969 65.153 Q 26.786 65.13 26.614 64.993 Q 26.442 64.855 26.304 64.671 Q 26.166 64.488 26.086 64.281 Q 26.006 64.075 26.006 63.914 Q 26.006 63.639 26.143 63.386 Q 26.281 63.134 26.487 62.939 Q 26.694 62.744 26.946 62.629 Q 27.199 62.514 27.451 62.491 Q 27.52 62.468 27.83 62.445 Q 28.14 62.422 28.53 62.388 Q 28.92 62.354 29.287 62.331 Q 29.654 62.308 29.838 62.285 L 30.228 62.285 L 30.618 62.285 Q 30.687 62.308 30.951 62.342 Q 31.215 62.377 31.513 62.411 Q 31.812 62.445 32.076 62.468 Q 32.34 62.491 32.408 62.491 L 37.687 62.491 Q 37.733 62.491 37.962 62.572 Q 38.192 62.652 38.283 62.652 L 38.375 62.652 Q 38.788 62.652 39.11 62.549 Q 39.431 62.445 39.959 62.445 Q 40.142 62.445 40.475 62.468 Q 40.808 62.491 40.877 62.491 Q 40.9 62.491 41.152 62.572 Q 41.404 62.652 41.496 62.652 Q 41.909 62.698 42.449 62.732 Q 42.988 62.767 43.378 62.927 Q 44.25 63.249 44.973 63.685 Q 45.696 64.121 46.43 64.717 Q 46.889 65.062 47.417 65.762 Q 47.945 66.461 48.415 67.288 Q 48.886 68.114 49.23 68.951 Q 49.574 69.789 49.643 70.432 L 49.643 71.143 L 49.643 71.418 Q 49.643 71.464 49.724 71.717 Q 49.804 71.969 49.804 72.015 L 49.804 72.107 L 49.804 72.222 Q 49.643 73.071 49.448 73.897 Q 49.253 74.723 48.966 75.515 Q 48.679 76.307 48.255 77.041 Q 47.83 77.775 47.211 78.418 Q 47.211 78.418 47.153 78.475 Q 47.096 78.533 47.016 78.59 Q 46.935 78.647 46.855 78.693 Q 46.775 78.739 46.752 78.739 Q 46.706 78.762 46.545 78.969 Q 46.384 79.175 46.178 79.428 Q 45.971 79.68 45.765 79.944 Q 45.558 80.208 45.466 80.346 Q 45.421 80.392 45.283 80.575 Q 45.145 80.759 45.145 80.805 Q 44.64 80.828 44.342 80.862 Q 44.044 80.897 43.722 81.149 Q 43.447 81.287 43.057 81.436 Q 42.667 81.585 42.242 81.7 Q 41.818 81.814 41.404 81.883 Q 40.991 81.952 40.67 81.952 Q 40.073 81.952 39.546 81.734 Q 39.018 81.516 38.49 81.424 L 37.801 81.424 Q 37.342 81.378 36.998 81.16 Q 36.654 80.942 36.172 80.942 L 35.988 80.942 Q 35.805 80.942 35.598 80.988 Q 35.392 81.034 35.231 81.149 Q 35.231 81.218 35.197 81.378 Q 35.162 81.539 35.105 81.711 Q 35.048 81.883 35.002 82.033 Q 34.956 82.182 34.956 82.228 Q 34.933 82.273 34.887 82.4 Q 34.841 82.526 34.784 82.652 Q 34.726 82.778 34.68 82.893 Q 34.634 83.008 34.634 83.008 Q 34.589 83.008 34.589 83.1 L 34.589 83.168 Q 34.589 83.214 34.589 83.272 Q 34.589 83.329 34.634 83.375 Q 34.634 83.421 34.795 83.673 Q 34.956 83.926 34.956 83.972 Q 34.956 84.018 34.99 84.167 Q 35.025 84.316 35.048 84.488 Q 35.07 84.66 35.093 84.798 Q 35.116 84.936 35.116 84.959 L 35.231 85.28 L 35.3 85.395 Q 35.3 85.693 35.151 86.072 Q 35.002 86.45 34.956 86.703 Q 34.933 86.749 34.887 86.886 Q 34.841 87.024 34.784 87.185 Q 34.726 87.345 34.68 87.483 Q 34.634 87.621 34.634 87.667 Q 34.634 87.735 34.68 87.965 Q 34.726 88.194 34.784 88.47 Q 34.841 88.745 34.887 88.986 Q 34.933 89.227 34.956 89.296 Q 35.025 89.617 35.048 89.961 Q 35.07 90.306 35.151 90.65 Q 35.231 90.994 35.403 91.293 Q 35.575 91.591 35.897 91.82 Q 35.988 91.889 36.241 92.004 Q 36.493 92.119 36.539 92.119 L 38.605 92.119 Q 38.719 92.119 38.972 92.291 Q 39.224 92.463 39.465 92.681 Q 39.706 92.899 39.89 93.083 Q 40.073 93.266 40.073 93.289 L 40.073 93.427 Q 39.89 93.748 39.741 93.955 Q 39.591 94.161 39.419 94.31 Q 39.247 94.46 39.029 94.54 Q 38.811 94.62 38.49 94.689 Q 38.283 94.689 37.79 94.666 Q 37.297 94.643 36.769 94.643 Q 36.241 94.643 35.77 94.666 Q 35.3 94.689 35.116 94.689 Q 35.002 94.689 34.692 94.746 Q 34.382 94.804 34.313 94.85 L 28.874 94.85 Q 28.576 94.643 28.323 94.643 Q 28.209 94.643 28.094 94.666 Q 27.979 94.689 27.796 94.689 L 27.612 94.689 Q 26.924 94.574 26.579 94.081 Q 26.235 93.587 26.166 92.899 Z" transform="matrix(1, 0, 0, 1, 221.414368, 143.718201)" style="fill: rgb(51, 51, 51);"/>
  <path d="M 54.572 94.804 Q 54.526 94.804 54.251 94.884 Q 53.975 94.964 53.929 95.01 L 53.562 95.01 Q 53.103 95.01 52.725 94.815 Q 52.346 94.62 52.346 94.092 L 52.346 93.886 Q 52.392 93.84 52.587 93.714 Q 52.782 93.587 52.828 93.587 Q 52.851 93.564 52.943 93.461 Q 53.034 93.358 53.138 93.255 Q 53.241 93.151 53.321 93.06 Q 53.402 92.968 53.425 92.945 Q 53.47 92.922 53.62 92.899 Q 53.769 92.876 53.929 92.853 Q 54.09 92.83 54.228 92.807 Q 54.365 92.784 54.411 92.784 Q 55.192 92.555 55.674 91.981 L 55.674 88.148 Q 55.696 88.126 55.731 87.999 Q 55.765 87.873 55.8 87.735 Q 55.834 87.598 55.857 87.483 Q 55.88 87.368 55.88 87.345 L 55.88 86.358 Q 55.88 85.785 55.777 85.245 Q 55.674 84.706 55.674 84.178 Q 55.674 83.008 55.995 81.906 L 55.995 77.936 Q 55.995 77.89 55.96 77.775 Q 55.926 77.661 55.88 77.615 Q 55.811 77.546 55.708 77.454 Q 55.605 77.362 55.501 77.259 Q 55.398 77.156 55.306 77.064 Q 55.215 76.972 55.192 76.949 Q 55.169 76.926 55.031 76.892 Q 54.893 76.857 54.733 76.812 Q 54.572 76.766 54.434 76.72 Q 54.297 76.674 54.297 76.674 Q 53.929 76.559 53.711 76.353 Q 53.493 76.146 53.287 75.871 L 53.287 75.756 Q 53.287 75.641 53.402 75.572 Q 53.516 75.503 53.654 75.469 Q 53.792 75.435 53.918 75.412 Q 54.044 75.389 54.09 75.343 Q 54.182 75.32 54.48 75.217 Q 54.779 75.113 54.893 75.067 L 59.047 75.067 Q 59.07 75.067 59.219 75.044 Q 59.368 75.022 59.518 74.987 Q 59.667 74.953 59.804 74.93 Q 59.942 74.907 59.965 74.907 Q 59.988 74.907 60.137 74.895 Q 60.286 74.884 60.481 74.884 Q 60.676 74.884 60.86 74.884 Q 61.044 74.884 61.158 74.884 Q 61.296 74.884 61.491 74.884 Q 61.686 74.884 61.87 74.884 Q 62.053 74.884 62.191 74.895 Q 62.329 74.907 62.352 74.907 Q 62.558 74.907 62.845 74.918 Q 63.132 74.93 63.384 75.01 Q 63.637 75.09 63.82 75.262 Q 64.004 75.435 64.004 75.756 Q 64.004 76.1 63.82 76.238 Q 63.637 76.376 63.384 76.421 Q 63.132 76.467 62.845 76.456 Q 62.558 76.444 62.352 76.513 Q 62.329 76.513 62.248 76.559 Q 62.168 76.605 62.065 76.674 Q 61.962 76.743 61.87 76.789 Q 61.778 76.835 61.755 76.835 Q 61.388 76.972 61.009 77.121 Q 60.631 77.271 60.631 77.73 Q 60.631 78.051 60.699 78.315 Q 60.768 78.579 60.768 78.877 L 60.768 79.038 Q 60.768 79.084 60.699 79.359 Q 60.631 79.634 60.631 79.68 L 60.631 80.988 Q 60.631 81.034 60.573 81.137 Q 60.516 81.241 60.47 81.264 Q 60.332 82.847 60.309 84.408 Q 60.286 85.968 60.126 87.552 Q 60.126 87.689 60.011 88.057 Q 59.896 88.424 59.85 88.607 L 59.85 91.637 Q 59.896 91.683 59.965 91.729 Q 60.057 91.797 60.126 91.797 Q 60.631 92.004 61.216 92.096 Q 61.801 92.188 62.398 92.222 Q 62.994 92.256 63.557 92.256 Q 64.119 92.256 64.601 92.302 Q 64.624 92.302 64.75 92.325 Q 64.876 92.348 65.014 92.36 Q 65.152 92.371 65.278 92.394 Q 65.404 92.417 65.45 92.417 L 65.611 92.417 L 65.725 92.417 Q 66.299 92.279 66.758 92.153 Q 67.217 92.027 67.676 91.637 Q 68.089 91.293 68.468 90.914 Q 68.846 90.535 69.248 90.168 Q 69.65 89.801 70.074 89.48 Q 70.499 89.158 71.004 88.929 L 71.072 88.929 L 71.164 88.929 Q 71.83 89.135 72.048 89.56 Q 72.266 89.984 72.266 90.65 L 72.266 90.994 Q 72.243 91.086 72.117 91.338 Q 71.99 91.591 71.945 91.637 Q 71.876 91.912 71.83 92.268 Q 71.784 92.624 71.692 92.979 Q 71.6 93.335 71.44 93.656 Q 71.279 93.978 71.004 94.207 Q 70.912 94.276 70.763 94.368 Q 70.613 94.46 70.453 94.563 Q 70.292 94.666 70.177 94.735 Q 70.063 94.804 70.04 94.804 Q 70.017 94.85 69.741 94.85 Q 69.489 94.85 69.225 94.827 Q 68.961 94.804 68.892 94.804 Q 68.869 94.873 68.617 95.022 Q 68.364 95.171 68.273 95.171 Q 67.837 95.194 67.297 95.045 Q 66.758 94.896 66.391 94.689 L 60.631 94.689 Q 60.539 94.735 60.24 94.769 Q 59.942 94.804 59.85 94.804 Q 59.804 94.85 59.414 94.85 Q 59.093 94.85 58.703 94.827 Q 58.313 94.804 58.267 94.804 Q 58.221 94.85 58.072 94.93 Q 57.923 95.01 57.762 95.102 Q 57.601 95.194 57.464 95.263 Q 57.326 95.332 57.303 95.332 Q 57.257 95.332 57.05 95.251 Q 56.844 95.171 56.798 95.171 Q 56.752 95.148 56.511 95.125 Q 56.27 95.102 55.995 95.079 Q 55.719 95.056 55.49 95.033 Q 55.26 95.01 55.192 95.01 Q 55.192 94.987 55.088 94.953 Q 54.985 94.918 54.882 94.884 Q 54.779 94.85 54.675 94.827 Q 54.572 94.804 54.572 94.804 Z" transform="matrix(1, 0, 0, 1, 221.414368, 143.718201)" style="fill: rgb(51, 51, 51);"/>
  <path d="M 81.774 84.614 Q 81.774 85.027 81.946 85.28 Q 82.118 85.532 82.37 85.681 Q 82.623 85.831 82.944 85.877 Q 83.265 85.922 83.587 85.922 L 84.344 85.922 Q 84.596 85.808 84.654 85.67 Q 84.711 85.532 84.711 85.349 Q 84.688 85.326 84.688 85.303 L 84.688 85.234 Q 84.665 85.188 84.665 85.119 Q 84.642 85.073 84.539 84.913 Q 84.436 84.752 84.332 84.568 Q 84.229 84.385 84.126 84.224 Q 84.023 84.064 84 84.018 Q 83.908 83.788 83.862 83.536 Q 83.816 83.283 83.747 83.042 Q 83.678 82.801 83.564 82.595 Q 83.449 82.388 83.196 82.228 L 82.99 82.228 Q 82.715 82.228 82.588 82.354 Q 82.462 82.48 82.405 82.675 Q 82.347 82.87 82.336 83.1 Q 82.324 83.329 82.279 83.536 Q 82.21 83.719 82.129 83.845 Q 82.049 83.972 81.969 84.075 Q 81.888 84.178 81.831 84.304 Q 81.774 84.431 81.774 84.614 Z M 73.191 93.496 Q 73.191 92.922 73.489 92.658 Q 73.787 92.394 74.223 92.268 Q 74.659 92.142 75.13 92.061 Q 75.6 91.981 75.922 91.797 L 76.059 91.66 Q 76.197 91.522 76.197 91.522 Q 76.564 91.224 76.805 90.983 Q 77.046 90.742 77.218 90.478 Q 77.39 90.214 77.517 89.893 Q 77.643 89.571 77.803 89.089 Q 77.803 89.043 77.872 88.883 Q 77.941 88.722 78.033 88.539 Q 78.125 88.355 78.205 88.194 Q 78.285 88.034 78.308 87.988 Q 78.308 87.919 78.32 87.712 Q 78.331 87.506 78.354 87.265 Q 78.377 87.024 78.4 86.817 Q 78.423 86.611 78.423 86.542 Q 78.423 86.542 78.469 86.45 Q 78.515 86.358 78.584 86.255 Q 78.653 86.152 78.698 86.049 Q 78.744 85.945 78.744 85.922 Q 78.767 85.854 78.813 85.601 Q 78.859 85.349 78.916 85.05 Q 78.974 84.752 79.02 84.488 Q 79.066 84.224 79.112 84.178 Q 79.318 83.237 79.731 82.296 Q 80.144 81.356 80.534 80.483 Q 80.534 80.438 80.592 80.242 Q 80.649 80.047 80.695 80.002 Q 80.718 79.887 80.787 79.623 Q 80.856 79.359 80.936 79.084 Q 81.016 78.808 81.085 78.567 Q 81.154 78.326 81.177 78.257 Q 81.177 78.234 81.2 78.12 Q 81.223 78.005 81.246 77.867 Q 81.269 77.73 81.292 77.615 Q 81.315 77.5 81.338 77.454 Q 81.338 77.408 81.418 77.213 Q 81.498 77.018 81.498 76.972 Q 81.613 76.812 81.728 76.651 Q 81.842 76.536 81.946 76.398 Q 82.049 76.261 82.118 76.192 Q 82.187 76.123 82.451 75.974 Q 82.715 75.825 83.036 75.653 Q 83.357 75.481 83.644 75.354 Q 83.931 75.228 84 75.228 Q 84.321 75.228 84.631 75.526 Q 84.941 75.825 85.205 76.284 Q 85.468 76.743 85.686 77.305 Q 85.904 77.867 86.088 78.407 Q 86.272 78.946 86.386 79.37 Q 86.501 79.795 86.57 80.002 Q 86.57 80.047 86.65 80.242 Q 86.731 80.438 86.731 80.483 Q 87.19 81.516 87.488 82.664 Q 87.786 83.811 88.154 84.959 L 88.154 85.601 Q 88.222 85.899 88.475 86.095 Q 88.727 86.29 88.842 86.542 Q 88.842 86.611 88.922 86.84 Q 89.003 87.07 89.106 87.345 Q 89.209 87.621 89.312 87.85 Q 89.416 88.08 89.462 88.148 Q 89.485 88.194 89.588 88.424 Q 89.691 88.653 89.829 88.929 Q 89.966 89.204 90.093 89.434 Q 90.219 89.663 90.265 89.732 Q 90.265 89.755 90.299 89.881 Q 90.334 90.007 90.38 90.145 Q 90.425 90.283 90.471 90.397 Q 90.517 90.512 90.54 90.512 Q 90.678 90.834 91.034 91.201 Q 91.389 91.568 91.745 91.947 Q 92.101 92.325 92.376 92.669 Q 92.652 93.014 92.652 93.266 Q 92.652 93.61 92.514 93.966 Q 92.376 94.322 92.009 94.528 Q 91.275 94.574 90.483 94.712 Q 89.691 94.85 88.957 94.85 L 88.681 94.85 Q 88.475 94.827 87.981 94.769 Q 87.488 94.712 86.949 94.666 Q 86.409 94.62 85.939 94.586 Q 85.468 94.551 85.308 94.528 Q 84.665 94.092 84.665 93.381 Q 84.665 92.83 84.941 92.601 Q 85.216 92.371 85.56 92.188 Q 85.904 92.004 86.18 91.706 Q 86.455 91.407 86.455 90.719 Q 86.455 90.03 86.295 89.64 Q 86.134 89.25 85.824 89.055 Q 85.514 88.86 85.078 88.814 Q 84.642 88.768 84.114 88.768 L 83.472 88.768 L 82.279 88.768 Q 81.98 88.837 81.647 88.986 Q 81.315 89.135 81.028 89.365 Q 80.741 89.594 80.557 89.881 Q 80.374 90.168 80.374 90.512 Q 80.374 90.948 80.592 91.27 Q 80.81 91.591 81.085 91.889 Q 81.361 92.188 81.579 92.486 Q 81.797 92.784 81.797 93.174 Q 81.797 93.794 81.602 94.104 Q 81.406 94.414 81.085 94.54 Q 80.764 94.666 80.316 94.666 Q 79.869 94.666 79.387 94.689 Q 79.295 94.689 78.871 94.712 Q 78.446 94.735 77.964 94.769 Q 77.482 94.804 77.046 94.827 Q 76.61 94.85 76.518 94.85 L 76.358 94.85 L 76.197 94.85 Q 76.036 94.827 75.738 94.792 Q 75.44 94.758 75.13 94.735 Q 74.82 94.712 74.579 94.7 Q 74.338 94.689 74.269 94.689 Q 73.879 94.597 73.535 94.276 Q 73.191 93.955 73.191 93.496 Z" transform="matrix(1, 0, 0, 1, 221.414368, 143.718201)" style="fill: rgb(51, 51, 51);"/>
  <path d="M 102.692 95.24 Q 102.6 95.194 102.302 95.079 Q 102.004 94.964 101.889 94.918 L 101.659 94.918 L 101.292 94.918 Q 101.132 94.941 100.822 94.964 Q 100.512 94.987 100.202 95.01 Q 99.892 95.033 99.651 95.068 Q 99.41 95.102 99.342 95.125 Q 99.319 95.125 99.112 95.182 Q 98.905 95.24 98.883 95.24 L 98.791 95.24 L 98.722 95.24 Q 98.676 95.24 98.504 95.182 Q 98.332 95.125 98.286 95.125 Q 97.804 95.056 97.311 95.045 Q 96.817 95.033 96.427 94.941 Q 96.037 94.85 95.784 94.563 Q 95.532 94.276 95.532 93.656 Q 95.532 92.991 95.956 92.75 Q 96.381 92.509 96.966 92.383 Q 97.551 92.256 98.148 92.096 Q 98.745 91.935 99.066 91.43 L 99.066 91.27 Q 99.066 90.879 98.974 90.489 Q 98.883 90.099 98.883 89.64 Q 98.883 88.148 99.009 86.703 Q 99.135 85.257 99.204 83.811 L 99.204 81.86 Q 99.25 81.264 99.376 80.656 Q 99.502 80.047 99.502 79.359 Q 99.502 78.625 99.342 77.993 Q 99.181 77.362 98.722 76.743 Q 98.676 76.72 98.619 76.651 Q 98.561 76.582 98.515 76.513 Q 98.446 76.421 98.401 76.353 L 96.611 76.353 Q 96.565 76.353 96.335 76.089 Q 96.106 75.825 96.014 75.664 Q 95.991 75.618 95.991 75.549 Q 95.968 75.481 95.968 75.343 Q 95.968 75.09 96.106 74.918 Q 96.243 74.746 96.473 74.62 Q 96.702 74.494 96.966 74.436 Q 97.23 74.379 97.483 74.356 L 99.342 74.356 Q 99.571 74.149 99.8 74.092 Q 100.03 74.035 100.305 74.035 Q 100.512 74.035 100.741 74.058 Q 100.971 74.081 101.223 74.081 L 101.453 74.081 Q 101.499 74.081 101.751 74 Q 102.004 73.92 102.095 73.92 Q 102.141 73.92 102.313 73.977 Q 102.486 74.035 102.531 74.081 L 105.423 74.081 Q 105.469 74.035 105.653 73.977 Q 105.836 73.92 105.905 73.92 Q 105.951 73.943 106.02 73.966 Q 106.066 73.989 106.123 74.023 Q 106.18 74.058 106.226 74.081 Q 106.318 74.127 106.49 74.241 Q 106.662 74.356 106.708 74.356 Q 106.8 74.471 106.926 74.654 Q 107.052 74.838 107.179 75.01 Q 107.305 75.182 107.397 75.32 Q 107.488 75.458 107.488 75.503 L 107.488 75.939 Q 107.42 75.962 107.282 76.008 Q 107.144 76.054 106.995 76.123 Q 106.846 76.192 106.708 76.238 Q 106.571 76.284 106.502 76.307 Q 106.456 76.307 106.284 76.444 Q 106.112 76.582 106.066 76.582 Q 105.744 76.789 105.435 76.972 Q 105.125 77.156 104.861 77.374 Q 104.597 77.592 104.436 77.879 Q 104.276 78.166 104.276 78.579 Q 104.276 78.923 104.379 79.244 Q 104.482 79.565 104.482 79.887 L 104.482 80.116 Q 104.482 80.162 104.459 80.3 Q 104.436 80.438 104.402 80.587 Q 104.367 80.736 104.344 80.885 Q 104.321 81.034 104.321 81.08 L 104.321 81.7 L 104.321 83.283 Q 104.276 83.742 104.058 84.167 Q 103.84 84.591 103.84 85.05 Q 103.84 85.257 103.897 85.486 Q 103.954 85.716 103.954 85.922 L 103.954 86.198 Q 103.863 87.001 103.771 87.85 Q 103.679 88.699 103.679 89.571 L 103.679 89.847 Q 103.748 90.283 103.794 90.73 Q 103.84 91.178 103.977 91.545 Q 104.115 91.912 104.413 92.153 Q 104.712 92.394 105.262 92.394 Q 105.584 92.394 105.79 92.21 Q 105.997 92.027 106.295 92.027 L 106.387 92.027 Q 106.502 92.027 106.502 92.073 Q 106.571 92.119 106.743 92.245 Q 106.915 92.371 107.098 92.52 Q 107.282 92.669 107.431 92.807 Q 107.58 92.945 107.649 93.014 Q 107.81 93.128 108.051 93.381 Q 108.292 93.633 108.292 93.932 L 108.292 93.978 Q 108.177 94.276 107.913 94.597 Q 107.649 94.918 107.488 95.125 Q 107.466 95.125 107.397 95.194 Q 107.351 95.217 107.328 95.24 Q 107.305 95.24 107.156 95.263 Q 107.007 95.286 106.834 95.32 Q 106.662 95.355 106.49 95.377 Q 106.318 95.4 106.226 95.4 L 106.02 95.4 L 105.698 95.4 Q 105.538 95.4 105.113 95.377 Q 104.689 95.355 104.207 95.32 Q 103.725 95.286 103.3 95.263 Q 102.876 95.24 102.692 95.24 Z" transform="matrix(1, 0, 0, 1, 221.414368, 143.718201)" style="fill: rgb(51, 51, 51);"/>
  <path d="M 111.894 94.85 Q 111.572 94.758 111.492 94.505 Q 111.412 94.253 111.412 94.046 L 111.412 93.863 Q 111.412 93.748 111.435 93.645 Q 111.458 93.542 111.572 93.427 Q 111.664 93.358 111.94 93.232 Q 112.215 93.106 112.525 92.945 Q 112.835 92.784 113.099 92.635 Q 113.363 92.486 113.477 92.417 Q 114.166 92.027 114.372 91.27 Q 114.579 90.512 114.579 89.755 L 114.579 89.571 Q 114.579 89.548 114.533 89.399 Q 114.487 89.25 114.43 89.089 Q 114.372 88.929 114.326 88.78 Q 114.28 88.63 114.28 88.585 Q 114.28 88.516 114.338 88.275 Q 114.395 88.034 114.441 87.942 L 114.441 80.506 Q 114.441 79.565 113.994 79.026 Q 113.546 78.487 113.007 78.085 Q 112.467 77.684 112.02 77.248 Q 111.572 76.812 111.572 76.077 Q 111.572 75.871 111.607 75.63 Q 111.641 75.389 111.894 75.228 Q 112.536 75.274 113.076 75.159 Q 113.615 75.044 114.235 75.044 Q 114.625 75.044 114.889 75.09 Q 115.153 75.136 115.589 75.389 Q 115.841 75.549 116.059 75.905 Q 116.277 76.261 116.53 76.467 Q 116.621 76.605 116.77 76.674 Q 116.92 76.743 117.069 76.789 Q 117.218 76.835 117.356 76.915 Q 117.493 76.995 117.608 77.133 Q 118.067 77.661 118.492 78.246 Q 118.916 78.831 119.398 79.359 Q 119.467 79.428 119.696 79.692 Q 119.926 79.956 120.201 80.265 Q 120.477 80.575 120.741 80.874 Q 121.005 81.172 121.142 81.31 Q 121.165 81.333 121.257 81.413 Q 121.349 81.493 121.464 81.596 Q 121.578 81.7 121.67 81.792 Q 121.762 81.883 121.785 81.906 Q 121.831 81.952 121.946 82.147 Q 122.06 82.342 122.186 82.56 Q 122.313 82.778 122.427 82.962 Q 122.542 83.146 122.565 83.168 Q 123.254 84.201 124.149 84.901 Q 125.044 85.601 126.053 86.198 Q 126.099 86.244 126.294 86.381 Q 126.489 86.519 126.535 86.542 L 126.903 86.542 Q 127.201 86.542 127.27 86.358 Q 127.339 86.175 127.339 85.922 L 127.339 85.762 Q 127.339 85.395 127.316 85.131 Q 127.293 84.867 127.178 84.477 Q 127.201 84.201 127.235 83.559 Q 127.27 82.916 127.293 82.205 Q 127.316 81.493 127.327 80.874 Q 127.339 80.254 127.339 80.002 L 127.339 79.565 Q 127.339 79.336 127.258 78.969 Q 127.178 78.602 127.04 78.223 Q 126.903 77.844 126.73 77.546 Q 126.558 77.248 126.375 77.133 Q 126.122 76.972 125.812 76.869 Q 125.503 76.766 125.227 76.639 Q 124.952 76.513 124.768 76.295 Q 124.585 76.077 124.585 75.641 Q 124.585 75.595 124.596 75.492 Q 124.608 75.389 124.676 75.389 Q 124.722 75.366 124.872 75.343 Q 125.021 75.32 125.193 75.297 Q 125.365 75.274 125.526 75.251 Q 125.686 75.228 125.755 75.228 Q 125.778 75.205 125.996 75.125 Q 126.214 75.044 126.26 75.044 L 127.132 75.044 L 127.499 75.044 Q 127.522 75.044 127.66 74.999 Q 127.798 74.953 127.97 74.907 Q 128.142 74.861 128.291 74.815 Q 128.44 74.769 128.486 74.769 L 128.532 74.769 L 128.647 74.769 Q 129.634 74.999 130.655 75.136 Q 131.676 75.274 132.732 75.228 Q 133.007 75.32 133.053 75.435 Q 133.099 75.549 133.099 75.756 Q 133.099 76.421 132.686 76.685 Q 132.273 76.949 131.745 77.064 Q 131.217 77.179 130.678 77.293 Q 130.138 77.408 129.909 77.775 Q 129.496 78.395 129.393 79.141 Q 129.289 79.887 129.289 80.667 L 129.289 81.631 L 129.289 82.228 Q 129.289 82.273 129.209 82.537 Q 129.129 82.801 129.083 82.893 L 129.083 83.008 L 129.083 83.168 Q 129.129 83.214 129.209 83.421 Q 129.289 83.627 129.289 83.696 Q 129.289 83.742 129.301 83.995 Q 129.312 84.247 129.335 84.545 Q 129.358 84.844 129.381 85.096 Q 129.404 85.349 129.427 85.395 Q 129.427 85.44 129.473 85.555 Q 129.519 85.67 129.576 85.808 Q 129.634 85.945 129.679 86.06 Q 129.725 86.175 129.725 86.198 L 129.748 86.358 Q 129.748 86.817 129.496 87.265 Q 129.243 87.712 129.243 88.171 Q 129.243 88.378 129.266 88.504 Q 129.289 88.63 129.427 88.768 Q 129.45 88.883 129.473 89.181 Q 129.496 89.48 129.519 89.801 Q 129.542 90.122 129.553 90.42 Q 129.565 90.719 129.565 90.834 L 129.565 91.522 Q 129.565 92.142 129.358 92.647 Q 129.152 93.151 128.647 93.542 Q 128.578 93.542 128.463 93.622 Q 128.348 93.702 128.28 93.702 L 128.257 93.702 L 128.119 93.702 Q 128.073 93.702 127.763 93.622 Q 127.453 93.542 127.339 93.542 Q 127.224 93.45 126.96 93.209 Q 126.696 92.968 126.386 92.692 Q 126.076 92.417 125.812 92.165 Q 125.549 91.912 125.457 91.82 Q 125.411 91.774 125.319 91.648 Q 125.227 91.522 125.124 91.384 Q 125.021 91.247 124.917 91.12 Q 124.814 90.994 124.791 90.948 Q 124.608 90.742 124.263 90.627 Q 123.919 90.512 123.873 90.352 Q 123.759 90.053 123.678 89.812 Q 123.598 89.571 123.518 89.353 Q 123.437 89.135 123.322 88.917 Q 123.208 88.699 123.001 88.447 Q 122.886 88.286 122.577 87.908 Q 122.267 87.529 121.911 87.139 Q 121.555 86.749 121.234 86.404 Q 120.913 86.06 120.775 85.922 Q 120.431 85.532 120.087 85.211 Q 119.742 84.89 119.398 84.591 Q 119.054 84.293 118.687 83.995 Q 118.32 83.696 117.952 83.329 Q 117.884 83.26 117.711 83.054 Q 117.539 82.847 117.356 82.618 Q 117.172 82.388 117.011 82.205 Q 116.851 82.021 116.782 82.021 Q 116.484 82.021 116.357 82.342 Q 116.231 82.664 116.185 83.077 Q 116.139 83.49 116.128 83.903 Q 116.116 84.316 116.025 84.477 Q 115.979 84.522 115.784 84.706 Q 115.589 84.89 115.589 84.913 Q 115.543 84.959 115.543 85.096 Q 115.543 85.234 115.543 85.326 Q 115.543 85.785 115.703 86.209 Q 115.864 86.634 115.864 87.116 Q 115.864 87.299 115.807 87.471 Q 115.749 87.644 115.749 87.896 Q 115.749 88.562 115.99 89.124 Q 116.231 89.686 116.369 90.352 L 116.369 90.673 L 116.369 90.834 Q 116.369 90.879 116.461 90.971 Q 116.552 91.063 116.656 91.166 Q 116.759 91.27 116.862 91.361 Q 116.966 91.453 116.966 91.476 Q 117.011 91.522 117.069 91.648 Q 117.126 91.774 117.172 91.82 Q 117.195 91.866 117.218 91.889 Q 117.241 91.958 117.333 91.958 Q 117.815 92.21 118.285 92.371 Q 118.756 92.532 119.192 92.727 Q 119.628 92.922 120.029 93.174 Q 120.431 93.427 120.775 93.863 Q 120.821 93.886 120.821 93.955 Q 120.821 94.023 120.821 94.046 Q 120.821 94.253 120.58 94.402 Q 120.339 94.551 120.178 94.643 Q 120.041 94.666 119.696 94.689 Q 119.352 94.712 118.974 94.746 Q 118.595 94.781 118.251 94.804 Q 117.906 94.827 117.769 94.85 Q 117.7 94.85 117.528 94.861 Q 117.356 94.873 117.184 94.896 Q 117.011 94.918 116.862 94.953 Q 116.713 94.987 116.644 95.01 Q 116.621 95.01 116.587 95.033 Q 116.552 95.056 116.507 95.079 L 116.369 95.125 Q 116.346 95.125 116.128 95.068 Q 115.91 95.01 115.864 95.01 L 114.579 95.01 Q 114.441 94.987 114.051 94.953 Q 113.661 94.918 113.236 94.896 Q 112.812 94.873 112.422 94.861 Q 112.031 94.85 111.894 94.85 Z" transform="matrix(1, 0, 0, 1, 221.414368, 143.718201)" style="fill: rgb(51, 51, 51);"/>
  <path d="M 135.917 94.046 Q 135.917 93.84 136.146 93.53 Q 136.376 93.22 136.559 93.106 Q 136.651 93.083 136.892 93.037 Q 137.133 92.991 137.408 92.922 Q 137.684 92.853 137.936 92.807 Q 138.189 92.761 138.303 92.738 Q 138.762 92.692 138.98 92.555 Q 139.198 92.417 139.29 91.958 Q 139.359 91.43 139.394 90.799 Q 139.428 90.168 139.428 89.617 L 139.428 89.296 Q 139.428 89.227 139.359 89.021 Q 139.29 88.814 139.29 88.768 Q 139.267 88.676 139.244 88.355 Q 139.221 88.034 139.198 87.655 Q 139.176 87.276 139.153 86.944 Q 139.13 86.611 139.107 86.542 Q 139.107 86.519 139.026 86.301 Q 138.946 86.083 138.946 86.037 L 138.946 85.991 L 138.946 85.922 Q 139.29 83.306 139.29 80.759 Q 139.29 80.093 139.198 79.451 Q 139.107 78.808 139.107 78.143 L 139.107 77.775 Q 139.038 77.73 138.854 77.615 Q 138.671 77.5 138.625 77.454 Q 138.579 77.408 138.464 77.282 Q 138.349 77.156 138.303 77.11 Q 137.959 76.949 137.512 76.892 Q 137.064 76.835 136.663 76.731 Q 136.261 76.628 135.997 76.398 Q 135.733 76.169 135.733 75.664 L 135.733 75.389 Q 135.733 75.297 135.756 75.228 Q 135.802 75.136 136.043 75.01 Q 136.284 74.884 136.399 74.884 L 141.172 74.884 Q 141.264 74.976 141.505 75.09 Q 141.746 75.205 141.792 75.228 L 141.952 75.228 Q 142.733 75.228 143.467 74.976 Q 144.201 74.723 144.982 74.723 L 145.647 74.723 Q 146.175 74.769 146.795 74.918 Q 147.414 75.067 147.965 75.067 Q 148.217 75.067 148.47 74.976 Q 148.722 74.884 149.021 74.884 L 149.135 74.884 Q 149.342 74.953 149.698 75.033 Q 150.053 75.113 150.421 75.228 Q 150.788 75.343 151.098 75.503 Q 151.407 75.664 151.522 75.871 Q 151.729 76.238 151.958 76.651 Q 152.188 77.064 152.383 77.5 Q 152.578 77.936 152.704 78.395 Q 152.83 78.854 152.83 79.29 Q 152.83 79.543 152.704 79.795 Q 152.578 80.047 152.325 80.162 Q 152.257 80.208 152.016 80.208 Q 151.775 80.208 151.683 80.208 Q 151.27 80.208 151.063 80.162 Q 150.857 80.116 150.719 79.99 Q 150.581 79.864 150.455 79.669 Q 150.329 79.474 150.099 79.198 Q 150.076 79.152 149.939 79.015 Q 149.801 78.877 149.64 78.728 Q 149.48 78.579 149.331 78.441 Q 149.181 78.303 149.135 78.257 Q 149.113 78.211 149.067 78.016 Q 149.021 77.821 149.021 77.775 Q 148.883 77.431 148.619 77.293 Q 148.355 77.156 148.034 77.087 Q 147.713 77.018 147.38 76.949 Q 147.047 76.88 146.772 76.674 L 144.339 76.674 Q 144.041 76.674 143.823 76.88 Q 143.605 77.087 143.398 77.293 Q 142.916 77.89 142.836 78.659 Q 142.756 79.428 142.756 80.162 Q 142.756 80.965 142.779 81.654 Q 142.801 82.342 142.962 83.168 Q 142.985 83.49 143.157 83.57 Q 143.329 83.65 143.559 83.65 L 143.903 83.65 Q 143.949 83.65 144.121 83.593 Q 144.293 83.536 144.339 83.536 Q 144.408 83.513 144.649 83.478 Q 144.89 83.444 145.154 83.421 Q 145.418 83.398 145.659 83.387 Q 145.9 83.375 145.968 83.375 Q 146.29 83.306 146.485 83.168 Q 146.68 83.031 146.795 82.836 Q 146.909 82.641 147.001 82.411 Q 147.093 82.182 147.231 81.952 Q 147.345 81.723 147.483 81.436 Q 147.621 81.149 147.793 80.897 Q 147.965 80.644 148.195 80.46 Q 148.424 80.277 148.745 80.277 Q 149.044 80.277 149.158 80.472 Q 149.273 80.667 149.296 80.988 Q 149.411 81.792 149.434 82.388 Q 149.457 82.985 149.457 83.765 L 149.457 84.614 Q 149.457 84.752 149.434 85.085 Q 149.411 85.418 149.388 85.762 Q 149.365 86.106 149.342 86.416 Q 149.319 86.726 149.296 86.817 Q 149.296 86.932 149.216 87.185 Q 149.135 87.437 149.135 87.506 L 149.135 87.712 L 149.135 88.263 Q 149.135 88.447 149.124 88.63 Q 149.113 88.814 149.021 88.929 Q 148.929 88.998 148.688 89.181 Q 148.447 89.365 148.355 89.411 L 147.965 89.411 Q 147.85 89.411 147.77 89.434 Q 147.69 89.457 147.644 89.457 Q 147.506 89.457 147.437 89.296 Q 147.345 89.204 147.231 88.963 Q 147.116 88.722 147.093 88.607 L 147.093 86.703 Q 147.07 86.404 146.909 86.209 Q 146.749 86.014 146.496 85.922 Q 146.244 85.831 145.934 85.796 Q 145.624 85.762 145.326 85.762 L 144.454 85.762 L 144.018 85.762 Q 143.788 85.762 143.57 85.785 Q 143.352 85.808 143.169 85.888 Q 142.985 85.968 142.87 86.14 Q 142.756 86.313 142.756 86.588 L 142.756 86.817 Q 142.779 86.886 142.801 87.185 Q 142.824 87.483 142.859 87.804 Q 142.893 88.126 142.916 88.412 Q 142.939 88.699 142.962 88.768 L 142.962 90.283 L 142.962 90.879 Q 142.962 90.902 142.997 91.006 Q 143.031 91.109 143.077 91.258 Q 143.123 91.407 143.169 91.556 Q 143.215 91.706 143.26 91.797 Q 143.375 92.073 143.547 92.199 Q 143.719 92.325 143.926 92.371 Q 144.133 92.417 144.374 92.417 Q 144.614 92.417 144.867 92.463 Q 145.257 92.509 145.647 92.624 Q 146.037 92.738 146.496 92.738 L 147.208 92.738 Q 147.919 92.738 148.665 92.692 Q 149.411 92.647 150.099 92.463 Q 150.145 92.463 150.283 92.383 Q 150.421 92.302 150.467 92.302 Q 150.512 92.233 150.673 92.107 Q 150.834 91.981 151.006 91.832 Q 151.178 91.683 151.327 91.533 Q 151.476 91.384 151.522 91.315 Q 151.591 91.27 151.775 91.086 Q 151.958 90.902 152.176 90.684 Q 152.394 90.466 152.578 90.294 Q 152.761 90.122 152.83 90.076 Q 152.945 89.961 153.071 89.927 Q 153.197 89.893 153.358 89.893 L 153.679 89.893 Q 153.932 89.893 154.23 89.916 Q 154.529 89.939 154.712 90.076 Q 155.171 90.397 155.515 90.753 Q 155.86 91.109 155.86 91.683 L 155.86 91.958 Q 155.837 92.05 155.779 92.245 Q 155.722 92.44 155.642 92.647 Q 155.561 92.853 155.481 93.025 Q 155.401 93.197 155.378 93.266 Q 155.263 93.45 154.942 93.691 Q 154.62 93.932 154.437 94.046 Q 154.299 94.115 154.081 94.23 Q 153.863 94.345 153.656 94.448 Q 153.45 94.551 153.289 94.62 Q 153.129 94.689 153.106 94.689 L 139.726 94.689 Q 139.405 94.804 139.061 94.827 Q 138.717 94.85 138.349 94.85 L 137.799 94.85 L 136.72 94.85 Q 136.628 94.85 136.433 94.792 Q 136.238 94.735 136.238 94.689 Q 136.192 94.597 136.054 94.356 Q 135.917 94.115 135.917 94.046 Z" transform="matrix(1, 0, 0, 1, 221.414368, 143.718201)" style="fill: rgb(51, 51, 51);"/>
  <path d="M 28.426 113.943 Q 28.426 114.632 28.576 115.217 Q 28.725 115.802 28.908 116.445 Q 28.954 116.56 29.012 116.732 Q 29.069 116.904 29.092 116.904 Q 29.115 116.95 29.241 117.076 Q 29.367 117.202 29.494 117.328 Q 29.62 117.455 29.735 117.569 Q 29.849 117.684 29.895 117.707 Q 30.079 117.914 30.239 118.143 Q 30.4 118.373 30.584 118.568 Q 30.767 118.763 31.008 118.889 Q 31.249 119.015 31.57 119.015 Q 31.823 119.015 31.972 118.935 Q 32.121 118.855 32.225 118.728 Q 32.328 118.602 32.408 118.43 Q 32.488 118.258 32.603 118.074 Q 32.993 117.455 33.28 117.076 Q 33.567 116.697 33.739 116.33 Q 33.911 115.963 33.992 115.515 Q 34.072 115.068 34.072 114.334 Q 34.072 113.645 33.842 112.991 Q 33.613 112.337 33.2 111.832 Q 32.787 111.327 32.19 111.029 Q 31.593 110.731 30.836 110.731 Q 30.63 110.731 30.469 110.753 Q 30.308 110.776 30.056 110.891 Q 29.505 111.212 29.184 111.488 Q 28.862 111.763 28.69 112.107 Q 28.518 112.452 28.472 112.888 Q 28.426 113.324 28.426 113.943 Z M 23.492 131.683 L 23.492 131.913 Q 23.492 131.959 23.573 132.154 Q 23.653 132.349 23.653 132.395 L 23.653 132.831 L 23.653 133.978 Q 23.699 134.253 23.733 134.517 Q 23.768 134.781 24.02 134.942 Q 24.043 134.965 24.146 135.034 Q 24.25 135.103 24.387 135.183 Q 24.525 135.263 24.651 135.344 Q 24.778 135.424 24.823 135.447 Q 25.282 135.768 25.615 136.284 Q 25.948 136.801 26.407 137.168 Q 26.659 137.42 27.095 137.489 Q 27.531 137.558 27.83 137.673 Q 27.876 137.673 28.071 137.753 Q 28.266 137.834 28.312 137.834 L 30.056 137.834 Q 30.125 137.834 30.308 137.856 Q 30.492 137.879 30.71 137.891 Q 30.928 137.902 31.112 137.925 Q 31.295 137.948 31.364 137.948 L 32.029 137.948 Q 32.443 137.948 32.833 137.822 Q 33.223 137.696 33.59 137.501 Q 33.957 137.306 34.313 137.099 Q 34.669 136.893 35.013 136.732 Q 35.357 136.525 35.701 136.33 Q 36.046 136.135 36.309 135.883 Q 36.573 135.63 36.746 135.298 Q 36.918 134.965 36.918 134.506 Q 36.918 133.932 36.654 133.301 Q 36.39 132.67 36 132.062 Q 35.61 131.454 35.174 130.926 Q 34.737 130.398 34.37 130.008 Q 34.324 129.962 34.129 129.778 Q 33.934 129.595 33.716 129.388 Q 33.498 129.182 33.303 128.998 Q 33.108 128.814 33.062 128.746 Q 33.062 128.7 32.993 128.551 Q 32.924 128.401 32.833 128.241 Q 32.741 128.08 32.672 127.942 Q 32.603 127.805 32.603 127.805 Q 32.282 127.162 31.789 126.416 Q 31.295 125.67 30.698 125.211 Q 30.653 125.189 30.538 125.154 Q 30.423 125.12 30.285 125.074 Q 30.148 125.028 30.033 124.993 Q 29.918 124.959 29.895 124.936 Q 29.62 124.73 29.459 124.534 Q 29.299 124.339 29.138 124.167 Q 28.977 123.995 28.748 123.892 Q 28.518 123.789 28.105 123.789 Q 27.325 123.789 26.981 123.938 Q 26.636 124.087 26.464 124.362 Q 26.292 124.638 26.166 125.051 Q 26.04 125.464 25.718 126.015 Q 25.718 126.038 25.604 126.152 Q 25.489 126.267 25.443 126.359 Q 25.42 126.382 25.328 126.451 Q 25.237 126.52 25.122 126.588 Q 25.007 126.657 24.915 126.726 Q 24.823 126.795 24.823 126.795 Q 24.548 127.07 24.433 127.369 Q 24.319 127.667 24.273 127.988 Q 24.227 128.31 24.215 128.665 Q 24.204 129.021 24.135 129.388 Q 24.135 129.388 24.089 129.48 Q 24.043 129.572 23.997 129.675 Q 23.951 129.778 23.905 129.882 Q 23.86 129.985 23.86 130.008 Q 23.837 130.077 23.791 130.272 Q 23.745 130.467 23.676 130.685 Q 23.607 130.903 23.561 131.109 Q 23.515 131.316 23.492 131.408 Z M 18.903 133.978 L 18.903 133.519 Q 18.903 133.496 18.925 133.404 Q 18.948 133.313 18.983 133.209 Q 19.017 133.106 19.04 133.003 Q 19.063 132.899 19.063 132.877 Q 19.109 131.89 19.109 131.029 Q 19.109 130.169 19.178 129.182 Q 19.224 129.182 19.281 128.987 Q 19.339 128.792 19.362 128.746 Q 19.499 128.401 19.648 128.011 Q 19.798 127.621 19.97 127.231 Q 20.142 126.841 20.36 126.485 Q 20.578 126.129 20.853 125.854 Q 20.968 125.693 21.243 125.407 Q 21.519 125.12 21.817 124.821 Q 22.115 124.523 22.379 124.271 Q 22.643 124.018 22.712 123.949 Q 22.758 123.903 22.942 123.789 Q 23.125 123.674 23.343 123.536 Q 23.561 123.398 23.756 123.295 Q 23.951 123.192 24.02 123.146 Q 24.273 122.939 24.525 122.767 Q 24.778 122.595 25.099 122.549 Q 25.122 122.503 25.282 122.503 Q 25.443 122.503 25.569 122.526 Q 25.695 122.549 25.718 122.549 Q 26.246 122.458 26.636 122.113 Q 27.027 121.769 27.027 121.241 Q 27.027 120.92 26.9 120.668 Q 26.774 120.415 26.579 120.197 Q 26.384 119.979 26.154 119.773 Q 25.925 119.566 25.718 119.291 Q 25.718 119.268 25.661 119.084 Q 25.604 118.9 25.604 118.855 Q 25.581 118.786 25.523 118.694 Q 25.466 118.602 25.42 118.499 Q 25.374 118.396 25.328 118.315 Q 25.282 118.235 25.282 118.235 Q 25.259 118.12 25.053 117.879 Q 24.846 117.638 24.823 117.592 Q 24.456 116.858 24.238 116.043 Q 24.02 115.229 24.02 114.448 Q 24.02 114.012 24.112 113.645 Q 24.204 113.278 24.319 112.922 Q 24.433 112.566 24.537 112.188 Q 24.64 111.809 24.663 111.35 Q 24.732 111.258 24.904 111.052 Q 25.076 110.845 25.271 110.627 Q 25.466 110.409 25.638 110.203 Q 25.81 109.996 25.879 109.927 Q 25.925 109.881 26.063 109.686 Q 26.2 109.491 26.246 109.445 Q 26.246 109.285 26.407 109.285 Q 26.545 109.216 26.912 109.101 Q 27.279 108.986 27.681 108.86 Q 28.082 108.734 28.438 108.631 Q 28.794 108.527 28.908 108.504 Q 29 108.459 29.344 108.401 Q 29.689 108.344 29.78 108.344 Q 30.148 108.229 30.492 108.045 Q 30.836 107.862 31.249 107.862 L 31.479 107.862 Q 31.593 107.862 31.823 107.885 Q 32.052 107.908 32.282 107.919 Q 32.511 107.931 32.695 107.954 Q 32.879 107.977 32.947 107.977 L 33.223 108.137 Q 33.315 108.183 33.498 108.241 Q 33.682 108.298 33.751 108.344 Q 33.751 108.344 33.865 108.367 Q 33.98 108.39 34.106 108.413 Q 34.233 108.436 34.359 108.459 Q 34.485 108.481 34.531 108.504 Q 34.554 108.504 34.669 108.562 Q 34.783 108.619 34.91 108.688 Q 35.036 108.757 35.151 108.837 Q 35.265 108.918 35.334 108.94 Q 35.357 108.94 35.437 109.044 Q 35.518 109.147 35.621 109.25 Q 35.724 109.354 35.828 109.457 Q 35.931 109.56 35.977 109.56 Q 36.39 109.927 36.791 110.283 Q 37.193 110.639 37.4 111.167 Q 37.652 111.832 37.927 112.498 Q 38.203 113.163 38.203 113.852 Q 38.203 115.091 37.698 116.273 Q 37.193 117.455 36.596 118.51 Q 36.482 118.694 36.321 118.843 Q 36.16 118.992 35.977 119.118 Q 35.793 119.245 35.621 119.371 Q 35.449 119.497 35.334 119.658 Q 35.265 119.704 35.093 119.968 Q 34.921 120.231 34.806 120.3 Q 34.806 120.323 34.669 120.415 Q 34.531 120.507 34.37 120.61 Q 34.21 120.713 34.06 120.794 Q 33.911 120.874 33.865 120.874 Q 33.797 120.989 33.613 121.172 Q 33.429 121.356 33.383 121.402 L 33.383 121.563 Q 33.383 122.343 33.797 123.008 Q 34.21 123.674 34.669 124.271 Q 34.806 124.454 35.128 124.856 Q 35.449 125.257 35.782 125.682 Q 36.114 126.106 36.39 126.474 Q 36.665 126.841 36.757 126.956 Q 36.849 127.093 37.17 127.346 Q 37.491 127.598 37.882 127.839 Q 38.272 128.08 38.627 128.252 Q 38.983 128.424 39.144 128.424 Q 39.304 128.424 39.465 128.401 Q 39.626 128.378 39.786 128.241 Q 40.36 127.69 40.75 126.887 Q 41.14 126.084 41.53 125.372 Q 41.576 125.326 41.703 125.154 Q 41.829 124.982 41.875 124.936 Q 41.898 124.798 41.955 124.58 Q 42.012 124.362 42.07 124.156 Q 42.127 123.949 42.15 123.8 Q 42.173 123.651 42.173 123.628 L 42.012 123.353 Q 41.416 123.353 40.83 123.1 Q 40.245 122.848 39.786 122.549 Q 39.786 122.503 39.763 122.366 Q 39.74 122.228 39.74 122.205 Q 39.74 121.769 40.004 121.459 Q 40.268 121.149 40.567 120.874 Q 40.635 120.874 40.83 120.863 Q 41.026 120.851 41.232 120.84 Q 41.439 120.828 41.622 120.805 Q 41.806 120.782 41.875 120.759 Q 41.898 120.759 42.001 120.713 Q 42.104 120.668 42.242 120.599 Q 42.38 120.53 42.506 120.484 Q 42.632 120.438 42.678 120.438 L 42.884 120.438 Q 43.183 120.438 43.412 120.518 Q 43.642 120.599 43.94 120.599 L 44.261 120.599 Q 44.307 120.599 44.434 120.553 Q 44.56 120.507 44.72 120.461 Q 44.881 120.415 45.007 120.369 Q 45.133 120.323 45.179 120.3 L 49.035 120.3 Q 49.058 120.3 49.195 120.369 Q 49.333 120.438 49.505 120.541 Q 49.677 120.645 49.85 120.736 Q 50.022 120.828 50.136 120.874 Q 50.251 120.989 50.274 121.035 Q 50.297 121.081 50.297 121.241 L 50.297 121.402 Q 50.091 121.884 49.666 122.343 Q 49.241 122.802 48.714 122.985 Q 48.691 123.008 48.553 123.054 Q 48.415 123.1 48.243 123.158 Q 48.071 123.215 47.922 123.272 Q 47.773 123.33 47.75 123.353 Q 47.658 123.376 47.417 123.536 Q 47.176 123.697 46.901 123.903 Q 46.625 124.11 46.373 124.294 Q 46.12 124.477 45.983 124.569 Q 45.937 124.615 45.799 124.752 Q 45.661 124.89 45.512 125.062 Q 45.363 125.234 45.225 125.384 Q 45.088 125.533 45.065 125.579 Q 45.019 125.579 44.904 125.67 Q 44.789 125.762 44.652 125.866 Q 44.514 125.969 44.399 126.061 Q 44.284 126.152 44.261 126.175 Q 43.848 126.52 43.527 126.979 Q 43.206 127.438 42.793 127.805 Q 42.701 127.942 42.494 128.344 Q 42.288 128.746 42.07 129.193 Q 41.852 129.641 41.645 130.042 Q 41.439 130.444 41.37 130.605 Q 41.347 130.673 41.301 130.891 Q 41.255 131.109 41.209 131.362 Q 41.163 131.614 41.129 131.821 Q 41.094 132.027 41.094 132.073 Q 41.049 132.119 40.991 132.234 Q 40.934 132.349 40.876 132.475 Q 40.819 132.601 40.773 132.727 Q 40.727 132.854 40.727 132.877 Q 40.727 132.899 40.773 133.037 Q 40.819 133.175 40.876 133.335 Q 40.934 133.496 40.991 133.645 Q 41.049 133.794 41.094 133.863 Q 41.186 134.047 41.358 134.162 Q 41.53 134.276 41.737 134.38 Q 41.944 134.483 42.15 134.575 Q 42.357 134.667 42.517 134.781 Q 42.563 134.827 42.735 135.045 Q 42.907 135.263 42.953 135.286 Q 43.252 135.516 43.665 135.63 Q 44.078 135.745 44.376 135.883 Q 44.445 135.906 44.617 135.917 Q 44.789 135.929 44.961 135.929 Q 45.133 135.929 45.306 135.929 Q 45.478 135.929 45.547 135.929 Q 45.753 135.929 45.925 135.952 Q 46.097 135.975 46.258 135.975 Q 46.465 135.975 46.671 135.929 Q 46.878 135.883 47.13 135.745 Q 47.566 135.516 47.945 135.24 Q 48.323 134.965 48.714 134.724 Q 49.104 134.483 49.528 134.311 Q 49.953 134.139 50.504 134.139 L 50.825 134.139 Q 50.848 134.162 50.928 134.242 Q 51.008 134.322 51.112 134.426 Q 51.215 134.529 51.307 134.632 Q 51.399 134.735 51.445 134.781 Q 51.559 134.965 51.582 135.275 Q 51.605 135.585 51.605 135.883 L 51.605 136.296 Q 51.605 137.443 51.008 138.396 Q 50.412 139.348 49.482 140.037 Q 48.553 140.725 47.428 141.104 Q 46.304 141.482 45.248 141.482 Q 44.422 141.482 43.653 141.345 Q 42.884 141.207 42.173 140.863 Q 42.15 140.84 42.127 140.794 Q 42.104 140.748 42.07 140.737 Q 42.035 140.725 42.012 140.702 Q 41.966 140.633 41.748 140.324 Q 41.53 140.014 41.289 139.658 Q 41.049 139.302 40.842 139.004 Q 40.635 138.706 40.567 138.637 Q 40.544 138.568 40.36 138.384 Q 40.176 138.201 39.958 137.983 Q 39.74 137.765 39.545 137.581 Q 39.35 137.398 39.304 137.329 Q 39.19 137.237 39.121 137.122 Q 39.052 137.007 38.983 136.904 Q 38.914 136.801 38.811 136.743 Q 38.708 136.686 38.501 136.686 Q 38.409 136.686 38.306 136.686 Q 38.203 136.686 38.203 136.732 Q 38.157 136.732 38.088 136.847 Q 38.019 136.961 37.939 137.099 Q 37.859 137.237 37.79 137.363 Q 37.721 137.489 37.721 137.512 Q 37.032 138.499 36.172 139.394 Q 35.311 140.289 34.233 140.863 Q 34.187 140.863 34.049 140.909 Q 33.911 140.955 33.739 141.012 Q 33.567 141.069 33.418 141.127 Q 33.269 141.184 33.223 141.207 Q 33.039 141.276 32.787 141.517 Q 32.534 141.758 32.282 141.804 Q 32.213 141.827 31.949 141.85 Q 31.685 141.873 31.398 141.896 Q 31.112 141.919 30.859 141.953 Q 30.607 141.987 30.561 142.01 Q 30.515 142.01 30.366 142.056 Q 30.216 142.102 30.056 142.148 Q 29.895 142.194 29.746 142.24 Q 29.597 142.286 29.574 142.286 L 28.633 142.286 Q 27.876 142.286 27.164 142.194 Q 26.453 142.102 25.718 141.804 Q 25.695 141.781 25.512 141.689 Q 25.328 141.597 25.122 141.494 Q 24.915 141.391 24.72 141.31 Q 24.525 141.23 24.456 141.207 Q 24.433 141.184 24.307 141.127 Q 24.181 141.069 24.009 141.012 Q 23.837 140.955 23.687 140.909 Q 23.538 140.863 23.492 140.863 Q 22.873 140.542 22.333 140.06 Q 21.794 139.578 21.289 139.119 Q 21.037 138.889 20.693 138.453 Q 20.348 138.017 20.016 137.524 Q 19.683 137.03 19.419 136.548 Q 19.155 136.066 19.063 135.745 Q 18.948 135.309 18.925 134.862 Q 18.903 134.414 18.903 133.978 Z" transform="matrix(1, 0, 0, 1, 221.414368, 143.718201)" style="fill: rgb(51, 51, 51);"/>
  <path d="M 74.829 112.75 L 74.829 112.704 Z M 64.686 140.587 Q 64.686 140.266 64.984 139.887 Q 65.282 139.509 65.741 139.509 Q 65.902 139.509 66.177 139.486 Q 66.453 139.463 66.705 139.463 Q 67.394 139.463 67.658 139.486 Q 67.922 139.509 67.967 139.509 L 68.22 139.509 Q 68.518 139.509 68.851 139.486 Q 69.184 139.463 69.494 139.394 Q 69.803 139.325 70.044 139.188 Q 70.285 139.05 70.354 138.797 L 70.354 137.65 Q 70.354 136.64 70.389 135.699 Q 70.423 134.758 70.515 133.817 Q 70.561 133.588 70.607 133.37 Q 70.653 133.152 70.744 132.831 Q 70.721 132.762 70.721 132.486 Q 70.721 131.981 70.733 131.626 Q 70.744 131.27 70.79 130.65 Q 70.79 130.559 70.813 130.49 Q 70.836 130.421 70.859 130.375 Q 70.859 129.916 70.882 129.457 Q 70.905 128.998 70.951 128.539 Q 70.905 128.424 70.871 128.137 Q 70.836 127.851 70.79 127.667 Q 70.767 127.575 70.744 127.346 Q 70.721 127.116 70.698 126.887 Q 70.675 126.657 70.653 126.474 Q 70.63 126.29 70.63 126.244 L 70.63 123.697 Q 70.584 123.651 70.549 123.41 Q 70.515 123.169 70.515 122.917 Q 70.538 122.687 70.549 122.274 Q 70.561 121.861 70.584 121.459 Q 70.607 121.058 70.618 120.748 Q 70.63 120.438 70.63 120.415 Q 70.63 120.369 70.653 120.254 Q 70.675 120.14 70.721 120.048 Q 70.744 119.933 70.767 119.818 Q 70.79 119.704 70.79 119.658 Q 70.79 119.474 70.744 119.268 Q 70.698 119.061 70.63 118.855 Q 70.515 118.464 70.515 118.074 Q 70.515 117.753 70.515 117.397 Q 70.515 117.042 70.561 116.72 Q 70.584 116.399 70.607 116.043 Q 70.63 115.688 70.63 115.366 Q 70.63 115.114 70.607 114.758 Q 70.584 114.402 70.561 114.012 Q 70.515 113.645 70.515 113.347 Q 70.515 113.048 70.515 112.865 Q 70.4 112.589 70.102 112.429 Q 69.803 112.268 69.425 112.165 Q 69.046 112.062 68.667 112.027 Q 68.289 111.993 68.059 111.993 Q 67.945 111.993 67.795 112.027 Q 67.646 112.062 67.531 112.107 Q 67.371 112.153 67.245 112.176 Q 67.118 112.199 66.935 112.199 Q 66.659 112.199 66.269 112.142 Q 65.879 112.085 65.523 111.947 Q 65.168 111.809 64.927 111.58 Q 64.686 111.35 64.686 111.006 Q 64.686 110.731 64.709 110.57 Q 64.732 110.409 64.915 110.363 Q 65.076 110.317 65.443 110.237 Q 65.81 110.157 66.109 110.134 Q 66.315 110.157 66.889 110.18 Q 67.463 110.203 68.128 110.249 Q 68.748 110.294 69.344 110.306 Q 69.941 110.317 70.194 110.317 Q 70.515 110.432 70.813 110.455 Q 71.112 110.478 71.708 110.478 Q 71.823 110.455 71.915 110.432 L 72.259 110.363 Q 72.351 110.317 72.385 110.317 Q 72.42 110.317 72.534 110.317 L 75.242 110.317 Q 75.265 110.317 75.392 110.306 Q 75.518 110.294 75.678 110.249 Q 75.793 110.203 75.908 110.18 Q 76.023 110.157 76.114 110.134 L 83.091 110.134 Q 83.206 110.134 83.711 110.157 Q 84.216 110.18 84.72 110.249 Q 85.133 110.317 85.409 110.317 Q 86.029 110.317 86.625 110.249 Q 86.946 110.203 87.233 110.168 Q 87.52 110.134 87.819 110.134 Q 88.438 110.134 88.92 110.214 Q 89.402 110.294 89.402 110.317 Q 89.471 110.317 89.689 110.34 Q 89.907 110.363 90.159 110.386 Q 90.412 110.409 90.618 110.432 Q 90.825 110.455 90.871 110.478 Q 91.261 110.57 91.479 110.971 Q 91.697 111.373 91.743 111.671 Q 91.858 112.199 91.881 112.566 Q 91.904 112.934 91.904 113.393 Q 91.904 114.104 91.904 114.575 Q 91.904 115.045 91.881 115.355 Q 91.858 115.665 91.835 115.86 Q 91.812 116.055 91.789 116.238 Q 91.743 116.628 91.685 116.984 Q 91.628 117.34 91.628 117.386 L 91.628 118.028 Q 91.628 118.235 91.582 118.441 Q 91.536 118.648 91.399 118.832 Q 91.33 118.855 91.158 118.855 Q 90.986 118.855 90.917 118.855 Q 90.504 118.855 90.033 118.419 Q 89.563 117.982 89.127 117.397 Q 88.691 116.812 88.335 116.227 Q 87.979 115.642 87.819 115.32 Q 87.773 115.206 87.658 114.93 Q 87.543 114.655 87.383 114.334 Q 87.268 114.058 87.119 113.725 Q 86.969 113.393 86.901 113.347 Q 86.786 113.163 86.499 112.899 Q 86.212 112.635 85.914 112.635 L 81.944 112.635 Q 81.255 112.383 80.475 112.348 Q 79.695 112.314 78.891 112.268 Q 78.478 112.268 78.065 112.245 Q 77.652 112.222 77.262 112.199 Q 77.055 112.199 76.872 112.142 Q 76.688 112.085 76.505 112.039 Q 76.321 111.97 76.103 111.901 Q 75.885 111.832 75.678 111.832 Q 75.495 111.832 75.3 112.062 Q 75.105 112.291 74.99 112.475 Q 74.875 112.589 74.875 112.658 Q 74.921 112.911 74.921 113.484 Q 74.921 114.058 74.921 114.655 Q 74.921 115.274 74.921 115.848 Q 74.921 116.422 74.875 116.628 Q 74.875 117.087 74.76 117.386 Q 74.715 117.592 74.657 117.81 Q 74.6 118.028 74.6 118.35 Q 74.646 118.533 74.692 118.774 Q 74.737 119.015 74.806 119.222 Q 74.921 119.635 75.001 120.071 Q 75.082 120.507 75.082 121.035 Q 75.082 121.31 75.059 121.597 Q 75.036 121.884 74.99 122.205 L 74.875 123.376 L 74.875 124.179 L 74.99 124.385 Q 74.99 124.408 75.346 124.431 Q 75.701 124.454 75.908 124.454 Q 76.023 124.5 76.355 124.5 Q 76.688 124.5 77.101 124.5 Q 77.491 124.5 77.836 124.5 Q 78.18 124.5 78.341 124.454 Q 78.363 124.454 78.386 124.477 Q 78.409 124.5 78.455 124.5 Q 78.639 124.615 78.799 124.638 Q 78.96 124.661 79.167 124.661 Q 79.35 124.661 79.522 124.638 Q 79.695 124.615 79.878 124.569 Q 80.062 124.546 80.211 124.5 Q 80.36 124.454 80.681 124.454 Q 80.796 124.477 80.911 124.5 Q 81.026 124.523 81.129 124.546 Q 81.232 124.569 81.301 124.569 Q 81.462 124.615 81.611 124.638 Q 81.76 124.661 81.898 124.661 Q 82.173 124.661 82.391 124.5 Q 82.609 124.339 82.758 124.098 Q 82.907 123.857 82.999 123.571 Q 83.091 123.284 83.137 123.031 Q 83.137 122.939 83.148 122.676 Q 83.16 122.412 83.183 122.113 Q 83.206 121.815 83.229 121.574 Q 83.252 121.333 83.298 121.287 Q 83.412 120.966 83.493 120.794 Q 83.573 120.622 83.573 120.69 L 83.573 120.484 Q 83.619 120.277 83.676 119.991 Q 83.734 119.704 84.009 119.612 Q 84.032 119.589 84.135 119.543 Q 84.238 119.497 84.376 119.451 Q 84.514 119.405 84.64 119.371 Q 84.766 119.336 84.835 119.336 Q 85.294 119.336 85.581 119.635 Q 85.868 119.933 85.96 120.163 L 85.96 125.602 Q 85.96 125.67 85.96 125.9 Q 85.96 126.129 86.006 126.405 Q 86.029 126.68 86.051 126.91 Q 86.074 127.139 86.074 127.208 Q 86.074 127.346 86.006 127.805 Q 85.937 128.264 85.845 128.792 Q 85.73 129.296 85.684 129.71 Q 85.638 130.123 85.638 130.214 Q 85.57 130.467 85.57 130.765 Q 85.524 131.086 85.478 131.431 Q 85.432 131.775 85.317 132.05 Q 85.202 132.326 84.973 132.498 Q 84.743 132.67 84.33 132.67 Q 83.963 132.67 83.734 132.475 Q 83.504 132.28 83.389 131.993 Q 83.275 131.706 83.229 131.362 Q 83.183 131.018 83.183 130.696 Q 83.183 130.627 83.16 130.524 Q 83.137 130.421 83.137 130.375 Q 83.045 129.939 82.93 129.411 Q 82.816 128.883 82.598 128.413 Q 82.38 127.942 82.047 127.61 Q 81.714 127.277 81.186 127.208 L 80.314 127.116 Q 79.924 127.07 79.477 127.059 Q 79.029 127.047 78.799 127.002 Q 78.409 127.002 78.088 127.024 Q 77.767 127.047 77.491 127.047 Q 77.239 127.047 77.078 127.047 Q 76.918 127.047 76.872 127.002 Q 76.711 127.002 76.619 126.956 Q 76.367 126.887 76.298 126.887 L 75.908 126.887 Q 75.655 126.887 75.518 126.956 Q 75.38 127.024 75.265 127.116 Q 75.219 127.162 75.162 127.197 Q 75.105 127.231 75.036 127.277 Q 74.944 127.323 74.875 127.346 L 74.21 127.346 Q 74.233 127.506 74.233 127.679 Q 74.233 127.851 74.233 127.988 Q 74.233 128.103 74.221 128.16 Q 74.21 128.218 74.164 128.31 Q 74.118 128.47 74.038 128.642 Q 73.957 128.814 73.957 128.906 Q 73.957 128.952 73.98 129.09 Q 74.003 129.228 74.049 129.388 Q 74.095 129.503 74.095 129.618 Q 74.118 129.687 74.141 129.859 Q 74.164 130.031 74.175 130.226 Q 74.187 130.421 74.21 130.605 Q 74.233 130.788 74.233 130.88 Q 74.279 130.926 74.279 130.983 Q 74.279 131.041 74.279 131.086 L 74.279 131.132 Q 74.439 131.224 74.439 131.247 Q 74.554 131.568 74.634 131.924 Q 74.715 132.28 74.76 132.67 Q 74.783 132.831 74.795 133.313 Q 74.806 133.794 74.829 134.357 Q 74.852 134.919 74.864 135.435 Q 74.875 135.952 74.875 136.181 L 74.875 138.545 Q 74.921 139.004 75.185 139.245 Q 75.449 139.486 75.828 139.612 Q 76.206 139.738 76.631 139.761 Q 77.055 139.784 77.423 139.784 L 78.203 139.784 Q 78.318 139.738 78.811 139.704 Q 79.304 139.669 80.406 139.669 Q 80.498 139.669 80.612 139.647 Q 80.727 139.624 80.865 139.624 Q 81.255 139.578 81.703 139.543 Q 82.15 139.509 82.265 139.463 Q 82.311 139.463 82.357 139.44 Q 82.403 139.417 82.448 139.406 Q 82.494 139.394 82.54 139.348 Q 82.724 139.279 82.758 139.256 Q 82.793 139.233 82.907 139.188 Q 83.022 139.188 83.309 139.314 Q 83.596 139.44 83.642 139.509 Q 83.779 139.532 83.986 139.543 Q 84.193 139.555 84.411 139.555 Q 84.629 139.555 84.812 139.555 Q 84.996 139.555 85.088 139.555 Q 85.225 139.555 85.443 139.555 Q 85.661 139.555 85.891 139.555 Q 86.12 139.555 86.292 139.543 Q 86.465 139.532 86.465 139.509 Q 86.487 139.509 86.51 139.486 Q 86.533 139.486 86.556 139.474 Q 86.579 139.463 86.602 139.463 Q 87.061 139.463 87.291 139.383 Q 87.52 139.302 87.773 139.142 Q 87.956 139.004 88.002 138.981 Q 88.048 138.958 88.071 138.958 L 88.025 138.958 Q 88.346 138.797 88.518 138.774 Q 88.691 138.752 88.851 138.706 Q 89.104 138.66 89.31 138.591 Q 89.517 138.522 89.609 138.43 Q 89.654 138.384 89.7 138.361 Q 89.746 138.338 89.815 138.27 Q 89.93 138.178 90.068 138.052 Q 90.205 137.925 90.343 137.811 Q 90.481 137.696 90.584 137.604 Q 90.687 137.512 90.71 137.489 Q 90.756 137.443 90.768 137.42 Q 90.779 137.398 90.848 137.237 Q 90.963 136.939 91.008 136.893 Q 91.215 136.411 91.399 136.009 Q 91.582 135.607 91.823 135.263 Q 92.064 134.919 92.397 134.644 Q 92.73 134.368 93.212 134.139 Q 93.28 134.139 93.326 134.116 Q 93.372 134.093 93.579 133.978 Q 93.625 133.955 93.705 133.921 Q 93.785 133.886 93.831 133.863 L 93.969 133.817 Q 94.061 133.817 94.256 133.99 Q 94.451 134.162 94.451 134.253 L 94.451 135.057 Q 94.451 135.08 94.566 135.424 Q 94.657 135.63 94.738 135.848 Q 94.818 136.066 94.818 136.181 L 94.818 136.847 Q 94.818 137.535 94.761 138.361 Q 94.703 139.188 94.657 139.715 Q 94.52 140.358 94.13 140.714 Q 93.739 141.069 93.223 141.253 Q 92.707 141.437 92.122 141.482 Q 91.536 141.528 91.008 141.528 L 89.012 141.528 Q 88.805 141.368 88.633 141.345 Q 88.461 141.322 88.209 141.322 Q 88.186 141.322 88.151 141.333 Q 88.117 141.345 87.864 141.414 Q 87.612 141.505 87.543 141.517 Q 87.474 141.528 87.428 141.528 Q 87.291 141.574 86.969 141.597 Q 86.648 141.62 86.304 141.643 Q 85.96 141.666 85.661 141.678 Q 85.363 141.689 85.271 141.689 L 74.279 141.689 Q 74.026 141.689 73.82 141.643 Q 73.613 141.597 73.406 141.528 Q 73.2 141.482 72.982 141.402 Q 72.764 141.322 72.649 141.322 Q 72.603 141.322 72.557 141.333 Q 72.511 141.345 72.305 141.414 Q 72.259 141.414 72.156 141.437 Q 72.052 141.46 71.938 141.482 Q 71.823 141.528 71.72 141.528 Q 71.616 141.528 71.593 141.528 Q 71.479 141.528 71.192 141.586 Q 70.905 141.643 70.515 141.735 Q 70.033 141.827 69.597 141.919 Q 69.161 142.01 68.931 142.01 L 68.449 142.01 L 65.259 142.079 Q 65.214 142.079 65.122 141.896 Q 65.03 141.712 64.95 141.471 Q 64.869 141.23 64.789 140.978 Q 64.709 140.725 64.686 140.61 Z" transform="matrix(1, 0, 0, 1, 221.414368, 143.718201)" style="fill: rgb(51, 51, 51);"/>
  <path d="M 102.381 135.86 Q 102.381 136.342 102.713 136.606 Q 103.046 136.87 103.505 137.007 Q 103.964 137.145 104.469 137.202 Q 104.974 137.26 105.295 137.352 L 105.318 137.352 Q 105.777 137.352 106.282 137.065 Q 106.787 136.778 106.993 136.457 Q 107.062 136.342 107.177 136.135 Q 107.292 135.929 107.395 135.722 Q 107.498 135.516 107.579 135.355 Q 107.659 135.194 107.659 135.148 L 107.659 132.119 L 107.521 131.798 Q 107.475 131.798 107.326 131.786 Q 107.177 131.775 107.108 131.775 Q 106.488 131.775 105.961 132.085 Q 105.433 132.395 104.928 132.762 Q 104.813 132.831 104.607 132.98 Q 104.4 133.129 104.205 133.29 Q 104.01 133.45 103.861 133.576 Q 103.712 133.703 103.689 133.703 Q 103.666 133.726 103.574 133.84 Q 103.482 133.955 103.379 134.104 Q 103.276 134.253 103.184 134.414 Q 103.092 134.575 103.023 134.667 Q 102.977 134.712 102.943 134.827 Q 102.908 134.942 102.908 134.988 Q 102.863 135.011 102.782 135.103 Q 102.702 135.194 102.622 135.298 Q 102.541 135.401 102.472 135.504 Q 102.404 135.607 102.381 135.653 Z M 107.269 139.256 Q 107.062 139.256 106.879 139.371 Q 106.695 139.486 106.523 139.647 Q 106.351 139.807 106.202 139.979 Q 106.052 140.151 105.915 140.266 Q 105.892 140.266 105.777 140.312 Q 105.662 140.358 105.571 140.427 Q 105.157 140.587 104.767 140.805 Q 104.377 141.023 103.987 141.219 Q 103.597 141.414 103.172 141.551 Q 102.748 141.689 102.312 141.689 L 101.6 141.689 Q 101.554 141.643 101.359 141.586 Q 101.164 141.528 101.118 141.482 Q 101.095 141.482 100.981 141.471 Q 100.866 141.46 100.728 141.437 Q 100.591 141.414 100.464 141.391 Q 100.338 141.368 100.315 141.322 Q 100.2 141.299 99.948 141.253 Q 99.696 141.207 99.65 141.207 Q 99.374 141.023 99.053 140.587 Q 98.732 140.151 98.456 139.624 Q 98.181 139.096 97.986 138.568 Q 97.791 138.04 97.791 137.673 Q 97.791 137.145 97.974 136.64 Q 98.158 136.135 98.25 135.653 Q 98.938 134.621 99.604 133.863 Q 100.269 133.106 101.325 132.486 Q 101.325 132.463 101.44 132.406 Q 101.554 132.349 101.681 132.291 Q 101.807 132.234 101.933 132.188 Q 102.059 132.142 102.105 132.119 Q 102.335 132.004 102.587 131.809 Q 102.84 131.614 103.092 131.419 Q 103.344 131.224 103.574 131.075 Q 103.803 130.926 103.987 130.88 Q 104.033 130.857 104.228 130.834 Q 104.423 130.811 104.641 130.788 Q 104.859 130.765 105.043 130.742 Q 105.226 130.719 105.295 130.696 Q 105.318 130.696 105.502 130.536 Q 105.685 130.375 105.731 130.375 Q 105.8 130.352 106.087 130.214 Q 106.374 130.077 106.695 129.916 Q 107.016 129.755 107.303 129.606 Q 107.59 129.457 107.659 129.411 Q 107.888 129.273 108.026 129.021 Q 108.164 128.769 108.221 128.493 Q 108.279 128.218 108.29 127.942 Q 108.301 127.667 108.301 127.438 Q 108.301 126.336 108.015 125.441 Q 107.728 124.546 106.993 123.674 Q 106.947 123.559 106.752 123.398 Q 106.557 123.238 106.511 123.238 L 105.134 123.238 Q 104.859 123.49 104.492 123.685 Q 104.125 123.88 103.987 124.179 Q 103.712 124.684 103.425 125.257 Q 103.138 125.831 103.023 126.405 Q 102.954 126.474 102.748 126.623 Q 102.541 126.772 102.323 126.91 Q 102.105 127.047 101.899 127.174 Q 101.692 127.3 101.6 127.346 Q 101.577 127.346 101.463 127.357 Q 101.348 127.369 101.199 127.369 Q 101.05 127.369 100.889 127.38 Q 100.728 127.392 100.636 127.392 Q 100.591 127.392 100.453 127.38 Q 100.315 127.369 100.154 127.369 Q 99.994 127.369 99.856 127.357 Q 99.718 127.346 99.65 127.346 Q 99.42 127.208 99.168 127.013 Q 98.915 126.818 98.709 126.6 Q 98.502 126.382 98.364 126.118 Q 98.227 125.854 98.227 125.533 Q 98.227 125.189 98.307 124.936 Q 98.387 124.684 98.514 124.454 Q 98.64 124.225 98.823 124.007 Q 99.007 123.789 99.214 123.536 Q 99.397 123.284 99.5 123.112 Q 99.604 122.939 99.856 122.756 Q 99.994 122.641 100.109 122.607 Q 100.223 122.572 100.35 122.561 Q 100.476 122.549 100.613 122.526 Q 100.751 122.503 100.958 122.435 Q 101.05 122.412 101.371 122.24 Q 101.692 122.067 102.071 121.872 Q 102.449 121.677 102.771 121.505 Q 103.092 121.333 103.184 121.287 Q 103.23 121.264 103.367 121.253 Q 103.505 121.241 103.654 121.218 Q 103.803 121.195 103.941 121.184 Q 104.079 121.172 104.125 121.172 Q 104.767 121.012 105.352 120.748 Q 105.938 120.484 106.603 120.484 L 106.879 120.484 Q 107.842 120.645 108.921 120.908 Q 110 121.172 110.849 121.792 Q 110.918 121.861 111.067 121.987 Q 111.216 122.113 111.365 122.274 Q 111.514 122.435 111.629 122.561 Q 111.744 122.687 111.767 122.756 Q 111.79 122.779 111.824 122.917 Q 111.859 123.054 111.882 123.203 Q 111.904 123.353 111.916 123.502 Q 111.927 123.651 111.927 123.674 Q 111.927 123.743 112.008 123.949 Q 112.088 124.156 112.18 124.408 Q 112.272 124.661 112.352 124.867 Q 112.432 125.074 112.432 125.143 Q 112.432 125.143 112.444 125.533 Q 112.455 125.923 112.467 126.451 Q 112.478 126.979 112.501 127.529 Q 112.524 128.08 112.547 128.424 L 112.547 128.539 L 112.547 128.631 Q 112.501 128.7 112.478 128.769 Q 112.432 128.906 112.432 128.952 Q 112.386 128.998 112.329 129.193 Q 112.272 129.388 112.272 129.411 Q 112.249 129.48 112.226 129.836 Q 112.203 130.191 112.18 130.593 Q 112.157 130.995 112.134 131.35 Q 112.111 131.706 112.111 131.798 Q 112.111 131.867 112.031 132.05 Q 111.95 132.234 111.927 132.28 Q 111.859 132.693 111.836 133.003 Q 111.813 133.313 111.79 133.611 Q 111.767 133.909 111.767 134.208 Q 111.767 134.506 111.767 134.896 L 111.767 136.089 Q 111.813 136.204 111.939 136.502 Q 112.065 136.801 112.111 136.893 Q 112.272 137.283 112.627 137.455 Q 112.983 137.627 113.431 137.707 Q 113.878 137.788 114.337 137.834 Q 114.796 137.879 115.186 137.983 Q 115.576 138.086 115.829 138.338 Q 116.081 138.591 116.081 139.073 Q 116.081 139.44 115.726 139.945 Q 115.37 140.45 114.865 140.909 Q 114.36 141.368 113.809 141.689 Q 113.258 142.01 112.868 142.01 L 112.432 142.01 Q 112.386 142.01 112.168 141.93 Q 111.95 141.85 111.927 141.85 Q 111.859 141.827 111.629 141.804 Q 111.4 141.781 111.124 141.769 Q 110.849 141.758 110.619 141.735 Q 110.39 141.712 110.321 141.689 Q 109.954 141.551 109.541 141.15 Q 109.128 140.748 108.726 140.335 Q 108.324 139.922 107.946 139.589 Q 107.567 139.256 107.269 139.256 Z" transform="matrix(1, 0, 0, 1, 221.414368, 143.718201)" style="fill: rgb(51, 51, 51);"/>
  <path d="M 117.737 138.43 L 117.737 137.879 Q 117.737 137.834 117.874 137.581 Q 118.012 137.329 118.012 137.283 Q 118.127 137.007 118.218 136.675 Q 118.31 136.342 118.436 136.044 Q 118.563 135.745 118.769 135.539 Q 118.976 135.332 119.366 135.332 L 119.595 135.332 Q 119.664 135.332 119.779 135.539 Q 119.894 135.745 119.963 135.86 Q 120.261 136.411 120.617 137.111 Q 120.972 137.811 121.431 138.407 Q 121.89 139.004 122.51 139.417 Q 123.13 139.83 123.933 139.83 Q 124.231 139.83 124.69 139.612 Q 125.149 139.394 125.597 139.096 Q 126.044 138.797 126.4 138.465 Q 126.756 138.132 126.824 137.879 Q 126.916 137.581 126.985 137.329 Q 127.054 137.076 127.054 136.801 Q 127.054 136.342 126.824 135.86 Q 126.824 135.585 126.354 135.103 Q 125.883 134.621 125.264 134.15 Q 124.644 133.68 124.071 133.29 Q 123.497 132.899 123.29 132.785 Q 123.038 132.693 122.774 132.681 Q 122.51 132.67 122.326 132.509 Q 122.326 132.463 122.223 132.372 Q 122.12 132.28 122.017 132.177 Q 121.913 132.073 121.81 131.981 Q 121.707 131.89 121.707 131.89 Q 121.661 131.798 121.408 131.626 Q 121.156 131.454 121.064 131.362 L 120.743 131.201 L 119.481 129.939 Q 119.32 129.549 119.217 129.159 Q 119.113 128.769 118.999 128.356 Q 118.976 128.241 118.918 128.034 Q 118.861 127.828 118.815 127.633 Q 118.769 127.438 118.723 127.288 Q 118.677 127.139 118.677 127.116 Q 118.632 126.497 118.769 125.82 Q 118.907 125.143 119.194 124.523 Q 119.481 123.903 119.871 123.364 Q 120.261 122.825 120.743 122.481 Q 120.789 122.435 120.995 122.377 Q 121.202 122.32 121.271 122.274 Q 121.615 122.136 122.017 121.849 Q 122.418 121.563 122.854 121.276 Q 123.29 120.989 123.726 120.782 Q 124.162 120.576 124.552 120.576 Q 124.943 120.576 125.447 120.748 Q 125.952 120.92 126.297 121.035 Q 126.916 121.241 127.49 121.425 Q 128.064 121.608 128.511 121.907 Q 128.959 122.205 129.223 122.664 Q 129.487 123.123 129.487 123.857 Q 129.487 124.11 129.429 124.58 Q 129.372 125.051 129.234 125.498 Q 129.096 125.946 128.844 126.279 Q 128.592 126.611 128.201 126.611 L 128.064 126.611 Q 128.018 126.565 127.903 126.29 Q 127.788 126.015 127.742 125.969 Q 127.421 125.395 127.042 124.867 Q 126.664 124.339 126.193 123.938 Q 125.723 123.536 125.172 123.307 Q 124.621 123.077 123.933 123.077 Q 123.726 123.077 123.451 123.1 Q 123.175 123.123 122.969 123.261 Q 122.189 123.857 121.787 124.523 Q 121.385 125.189 121.385 126.198 Q 121.385 126.749 121.638 127.197 Q 121.89 127.644 122.28 127.988 Q 122.671 128.333 123.153 128.585 Q 123.634 128.837 124.093 128.975 Q 124.116 128.998 124.254 129.021 Q 124.392 129.044 124.564 129.067 Q 124.736 129.09 124.874 129.113 Q 125.011 129.136 125.034 129.136 Q 125.08 129.136 125.195 129.216 Q 125.31 129.296 125.356 129.296 Q 125.861 129.664 126.4 130.019 Q 126.939 130.375 127.456 130.754 Q 127.972 131.132 128.454 131.568 Q 128.936 132.004 129.326 132.509 Q 129.349 132.532 129.418 132.67 Q 129.487 132.808 129.567 132.98 Q 129.647 133.152 129.716 133.324 Q 129.785 133.496 129.831 133.588 Q 129.831 133.634 129.842 133.772 Q 129.854 133.909 129.877 134.07 Q 129.9 134.231 129.934 134.38 Q 129.968 134.529 129.991 134.552 Q 130.083 134.827 130.221 135.045 Q 130.359 135.263 130.485 135.47 Q 130.611 135.676 130.703 135.883 Q 130.795 136.089 130.795 136.365 Q 130.795 137.099 130.473 137.719 Q 130.152 138.338 129.831 139.027 Q 129.532 139.509 129.05 139.968 Q 128.569 140.427 128.247 140.725 Q 127.329 141.528 126.136 141.861 Q 124.943 142.194 123.841 142.194 Q 123.015 142.194 122.166 142.102 Q 121.317 142.01 120.582 141.689 Q 120.559 141.666 120.422 141.586 Q 120.284 141.505 120.112 141.402 Q 119.94 141.299 119.79 141.207 Q 119.641 141.115 119.595 141.092 Q 119.136 140.817 118.781 140.599 Q 118.425 140.381 118.196 140.106 Q 117.966 139.83 117.851 139.44 Q 117.737 139.05 117.737 138.43 Z" transform="matrix(1, 0, 0, 1, 221.414368, 143.718201)" style="fill: rgb(51, 51, 51);"/>
  <path d="M 135.612 113.898 Q 135.612 113.002 136.105 112.165 Q 136.599 111.327 137.402 110.914 Q 137.494 110.914 137.769 110.891 Q 138.045 110.868 138.343 110.845 Q 138.641 110.822 138.917 110.811 Q 139.192 110.799 139.307 110.799 Q 139.307 110.731 139.376 110.731 Q 139.743 110.731 140.007 110.88 Q 140.271 111.029 140.477 111.258 Q 140.684 111.488 140.856 111.775 Q 141.028 112.062 141.166 112.314 Q 141.235 112.429 141.315 112.578 Q 141.395 112.727 141.476 112.888 Q 141.556 113.048 141.613 113.163 Q 141.671 113.278 141.671 113.301 Q 141.671 113.37 141.694 113.725 Q 141.717 114.081 141.717 114.265 Q 141.717 114.953 141.51 115.584 Q 141.303 116.215 140.902 116.709 Q 140.5 117.202 139.938 117.501 Q 139.376 117.799 138.664 117.799 Q 138.595 117.799 138.423 117.776 Q 138.251 117.753 138.136 117.753 Q 137.7 117.317 137.253 116.904 Q 136.805 116.491 136.438 116.043 Q 136.071 115.596 135.842 115.079 Q 135.612 114.563 135.612 113.898 Z M 133.73 140.289 Q 133.73 139.876 133.983 139.589 Q 134.235 139.302 134.579 139.05 Q 134.924 138.797 135.268 138.533 Q 135.612 138.27 135.796 137.879 Q 135.91 137.604 135.956 137.306 Q 136.002 137.007 136.002 136.686 Q 136.002 136.388 135.979 136.112 Q 135.956 135.837 135.956 135.585 L 135.956 135.332 Q 135.956 135.286 136.037 135.011 Q 136.117 134.735 136.117 134.712 L 136.117 132.945 Q 136.117 132.922 136.14 132.785 Q 136.163 132.647 136.197 132.498 Q 136.232 132.349 136.255 132.211 Q 136.278 132.073 136.278 132.05 Q 136.278 131.981 136.197 131.706 Q 136.117 131.431 136.117 131.362 L 136.117 131.293 L 136.117 131.247 Q 136.117 131.201 136.163 131.064 Q 136.209 130.926 136.255 130.765 Q 136.3 130.605 136.346 130.467 Q 136.392 130.329 136.392 130.283 Q 136.392 130.26 136.438 129.928 Q 136.484 129.595 136.484 129.388 Q 136.484 128.746 136.415 128.195 Q 136.346 127.644 135.956 127.116 Q 135.887 127.047 135.692 126.806 Q 135.497 126.565 135.291 126.302 Q 135.084 126.038 134.901 125.82 Q 134.717 125.602 134.694 125.533 Q 134.694 125.487 134.556 125.189 Q 134.419 124.89 134.373 124.73 L 134.373 124.615 Q 134.373 124.431 134.51 124.248 Q 134.648 124.064 134.809 123.949 Q 135.268 123.628 135.773 123.33 Q 136.278 123.031 136.759 122.802 Q 136.805 122.802 137.069 122.744 Q 137.333 122.687 137.402 122.641 Q 137.448 122.618 137.677 122.503 Q 137.907 122.389 138.159 122.251 Q 138.412 122.113 138.641 121.987 Q 138.871 121.861 138.94 121.838 Q 139.031 121.838 139.307 121.815 Q 139.582 121.792 139.697 121.792 Q 139.812 121.792 140.007 121.815 Q 140.202 121.838 140.248 121.838 L 140.523 122.343 Q 140.546 122.343 140.569 122.549 Q 140.592 122.756 140.626 123.031 Q 140.661 123.307 140.684 123.605 Q 140.707 123.903 140.73 124.11 L 140.73 124.339 Q 140.73 124.546 140.707 124.672 Q 140.684 124.798 140.523 125.005 Q 140.523 125.166 140.546 125.533 Q 140.569 125.9 140.569 126.359 Q 140.569 126.818 140.546 127.208 Q 140.523 127.598 140.523 127.759 Q 140.523 127.805 140.477 127.988 Q 140.431 128.172 140.385 128.378 Q 140.34 128.585 140.294 128.769 Q 140.248 128.952 140.248 128.975 L 140.248 129.388 Q 140.248 129.641 140.328 129.813 Q 140.408 129.985 140.489 130.134 Q 140.569 130.283 140.649 130.421 Q 140.73 130.559 140.73 130.742 Q 140.73 131.132 140.684 131.568 Q 140.638 132.004 140.363 132.326 Q 140.408 132.578 140.408 132.819 Q 140.408 133.06 140.408 133.313 Q 140.408 133.932 140.363 134.563 Q 140.317 135.194 140.248 135.86 Q 140.248 135.883 140.167 136.147 Q 140.087 136.411 140.087 136.457 L 140.087 136.847 L 140.087 137.076 Q 140.087 137.26 140.11 137.432 Q 140.133 137.604 140.248 137.719 L 142.313 139.784 Q 142.313 139.83 142.371 140.014 Q 142.428 140.197 142.474 140.266 L 142.474 140.427 Q 142.474 140.656 142.371 140.909 Q 142.267 141.161 142.084 141.368 Q 141.9 141.574 141.671 141.712 Q 141.441 141.85 141.166 141.85 L 139.926 141.85 L 138.664 141.85 Q 138.435 141.85 137.941 141.827 Q 137.448 141.804 136.92 141.769 Q 136.392 141.735 135.933 141.712 Q 135.474 141.689 135.337 141.689 Q 134.648 141.643 134.189 141.333 Q 133.73 141.023 133.73 140.289 Z" transform="matrix(1, 0, 0, 1, 221.414368, 143.718201)" style="fill: rgb(51, 51, 51);"/>
  <path d="M 150.942 125.257 Q 150.942 125.808 151.195 126.049 Q 151.447 126.29 151.826 126.359 Q 152.204 126.428 152.652 126.416 Q 153.099 126.405 153.467 126.451 Q 153.512 126.451 153.65 126.531 Q 153.788 126.611 153.834 126.611 Q 154.293 126.749 154.522 126.772 Q 154.752 126.795 155.211 126.795 Q 155.647 126.795 156.106 126.761 Q 156.565 126.726 156.943 126.588 Q 157.322 126.451 157.563 126.152 Q 157.804 125.854 157.804 125.326 Q 157.804 124.661 157.586 123.938 Q 157.368 123.215 156.84 122.802 Q 156.725 122.802 156.484 122.779 Q 156.243 122.756 155.968 122.733 Q 155.693 122.71 155.429 122.676 Q 155.165 122.641 155.05 122.641 Q 155.004 122.618 154.935 122.572 Q 154.798 122.481 154.775 122.481 L 154.384 122.481 Q 153.903 122.481 153.294 122.721 Q 152.686 122.962 152.17 123.353 Q 151.654 123.743 151.298 124.236 Q 150.942 124.73 150.942 125.257 Z M 145.687 130.926 Q 145.687 129.572 145.997 128.183 Q 146.306 126.795 147.11 125.648 Q 147.27 125.418 147.569 125.039 Q 147.867 124.661 148.154 124.282 Q 148.441 123.903 148.647 123.605 Q 148.854 123.307 148.877 123.261 Q 149.175 122.894 149.657 122.572 Q 150.139 122.251 150.667 121.953 Q 151.195 121.654 151.722 121.367 Q 152.25 121.081 152.64 120.805 Q 153.099 120.713 153.558 120.656 Q 154.017 120.599 154.476 120.599 Q 155.234 120.599 155.853 120.759 Q 156.335 121.081 156.886 121.161 Q 157.437 121.241 157.965 121.402 Q 158.401 121.517 158.825 121.758 Q 159.25 121.999 159.605 122.331 Q 159.961 122.664 160.271 123.043 Q 160.581 123.421 160.81 123.789 Q 160.833 123.812 160.879 123.903 Q 160.925 123.995 160.982 124.098 Q 161.04 124.202 161.086 124.294 Q 161.132 124.385 161.132 124.408 Q 161.246 124.569 161.441 124.764 Q 161.636 124.959 161.82 125.177 Q 162.004 125.395 162.13 125.636 Q 162.256 125.877 162.256 126.129 Q 162.256 126.313 162.233 126.577 Q 162.21 126.841 162.141 127.105 Q 162.072 127.369 161.946 127.598 Q 161.82 127.828 161.613 127.919 Q 161.568 127.919 161.441 127.965 Q 161.315 128.011 161.154 128.069 Q 160.994 128.126 160.845 128.172 Q 160.696 128.218 160.65 128.241 Q 160.627 128.241 160.5 128.298 Q 160.374 128.356 160.351 128.378 Q 160.053 128.378 159.445 128.39 Q 158.837 128.401 158.068 128.413 Q 157.299 128.424 156.45 128.447 Q 155.601 128.47 154.832 128.493 Q 154.063 128.516 153.444 128.528 Q 152.824 128.539 152.526 128.539 Q 152.434 128.539 152.181 128.551 Q 151.929 128.562 151.654 128.585 Q 151.378 128.608 151.137 128.642 Q 150.896 128.677 150.804 128.7 Q 150.208 129.182 150.013 129.859 Q 149.818 130.536 149.818 131.293 Q 149.818 132.119 149.978 132.727 Q 150.139 133.335 150.46 134.116 Q 150.506 134.162 150.563 134.288 Q 150.621 134.414 150.621 134.46 Q 150.644 134.483 150.747 134.563 Q 150.85 134.644 150.954 134.747 Q 151.057 134.85 151.149 134.953 Q 151.24 135.057 151.24 135.103 Q 151.263 135.126 151.39 135.252 Q 151.516 135.378 151.654 135.539 Q 151.791 135.699 151.906 135.848 Q 152.021 135.998 152.044 136.044 Q 152.09 136.044 152.147 136.112 Q 152.204 136.181 152.25 136.181 Q 152.457 136.365 152.767 136.617 Q 153.076 136.87 153.375 137.099 Q 153.719 137.375 154.109 137.65 Q 155.096 137.925 156.014 137.925 Q 156.932 137.925 157.965 137.65 Q 158.561 137.283 159.192 137.088 Q 159.823 136.893 160.466 136.686 Q 160.512 136.64 160.65 136.583 Q 160.787 136.525 160.81 136.48 L 160.948 136.48 L 160.971 136.48 Q 161.132 136.548 161.373 136.663 Q 161.613 136.778 161.613 136.847 Q 161.659 136.893 161.717 137.191 Q 161.774 137.489 161.774 137.65 Q 161.774 138.04 161.556 138.568 Q 161.338 139.096 161.132 139.348 Q 161.132 139.394 160.868 139.578 Q 160.604 139.761 160.466 139.853 Q 159.732 140.335 159.02 140.874 Q 158.309 141.414 157.483 141.735 Q 157.437 141.758 157.265 141.792 Q 157.092 141.827 156.909 141.85 Q 156.725 141.873 156.565 141.896 Q 156.404 141.919 156.381 141.919 Q 155.945 142.033 155.635 142.137 Q 155.325 142.24 154.912 142.24 Q 154.522 142.24 154.201 142.137 Q 153.88 142.033 153.467 141.919 Q 153.26 141.873 152.881 141.769 Q 152.503 141.666 152.09 141.528 Q 151.676 141.391 151.321 141.23 Q 150.965 141.069 150.804 140.932 Q 150.736 140.909 150.552 140.725 Q 150.368 140.542 150.15 140.335 Q 149.932 140.128 149.749 139.945 Q 149.565 139.761 149.496 139.715 Q 149.473 139.669 149.267 139.532 Q 149.06 139.394 149.037 139.348 Q 148.923 139.302 148.762 139.13 Q 148.601 138.958 148.555 138.912 Q 148.487 138.82 148.269 138.488 Q 148.05 138.155 147.798 137.765 Q 147.546 137.375 147.305 137.007 Q 147.064 136.64 146.972 136.48 Q 146.651 136.021 146.547 135.562 Q 146.444 135.103 146.329 134.575 Q 146.329 134.552 146.249 134.357 Q 146.169 134.162 146.169 134.116 Q 145.87 133.427 145.779 132.567 Q 145.687 131.706 145.687 130.926 Z" transform="matrix(1, 0, 0, 1, 221.414368, 143.718201)" style="fill: rgb(51, 51, 51);"/>
  <path d="M 231.146 221.057 Q 231.57 221.148 231.646 221.405 Q 231.721 221.663 231.721 221.996 L 231.721 222.42 Q 231.721 223.086 231.676 223.615 Q 231.631 224.145 231.358 224.842 Q 231.358 224.993 231.207 225.099 Q 231.055 225.205 230.859 225.265 Q 230.662 225.326 230.495 225.371 Q 230.329 225.417 230.268 225.417 Q 229.209 225.598 228.27 225.659 Q 227.332 225.719 226.333 225.719 L 224.758 225.719 Q 224.365 225.992 223.941 225.992 L 223.608 225.992 Q 222.942 225.992 222.337 225.825 Q 221.731 225.659 221.095 225.659 Q 220.944 225.659 220.672 225.659 Q 220.399 225.659 220.308 225.719 Q 220.066 225.719 219.642 225.765 Q 219.218 225.81 218.81 225.856 Q 218.401 225.901 218.083 225.947 Q 217.765 225.992 217.705 225.992 Q 217.644 225.992 217.478 226.143 Q 217.311 226.295 217.13 226.476 Q 216.948 226.658 216.781 226.855 Q 216.615 227.051 216.554 227.142 Q 216.342 227.536 216.282 228.308 Q 216.221 229.08 216.221 229.746 L 216.221 230.442 Q 216.221 231.865 216.312 233.545 Q 216.403 235.225 216.554 236.467 Q 216.554 236.557 216.63 236.769 Q 216.706 236.981 216.812 237.238 Q 216.918 237.496 217.008 237.693 Q 217.099 237.889 217.13 237.92 L 217.13 238.404 Q 217.13 238.737 217.054 238.964 Q 216.978 239.191 216.554 239.403 L 216.554 241.431 Q 216.554 241.492 216.509 241.658 Q 216.464 241.825 216.388 242.022 Q 216.312 242.218 216.267 242.385 Q 216.221 242.551 216.221 242.582 Q 216.221 242.673 216.236 242.9 Q 216.252 243.127 216.252 243.414 Q 216.252 243.702 216.267 244.035 Q 216.282 244.368 216.282 244.671 Q 216.282 245.004 216.282 245.231 Q 216.282 245.458 216.221 245.518 Q 216.221 245.579 216.146 245.745 Q 216.07 245.912 215.979 246.109 Q 215.888 246.305 215.782 246.472 Q 215.676 246.638 215.646 246.669 L 215.646 246.82 L 215.646 246.971 Q 215.646 247.002 215.692 247.168 Q 215.737 247.335 215.813 247.547 Q 215.888 247.759 215.934 247.94 Q 215.979 248.122 215.979 248.152 L 215.979 249.393 L 215.979 249.878 Q 215.979 249.938 216.009 250.12 Q 216.04 250.301 216.085 250.498 Q 216.131 250.695 216.176 250.862 Q 216.221 251.028 216.221 251.058 L 216.221 251.331 L 216.221 251.634 Q 216.221 251.694 216.176 251.861 Q 216.131 252.027 216.085 252.224 Q 216.04 252.421 216.009 252.587 Q 215.979 252.754 215.979 252.784 L 215.979 252.966 L 215.979 253.056 Q 215.979 253.177 216.009 253.571 Q 216.04 253.965 216.085 254.404 Q 216.131 254.842 216.176 255.221 Q 216.221 255.599 216.221 255.72 Q 216.221 255.781 216.236 256.19 Q 216.252 256.598 216.282 257.098 Q 216.312 257.597 216.327 258.112 Q 216.342 258.627 216.342 258.929 Q 216.342 259.111 216.327 259.565 Q 216.312 260.019 216.282 260.519 Q 216.252 261.018 216.236 261.472 Q 216.221 261.926 216.221 262.108 Q 216.191 262.259 216.085 262.698 Q 215.979 263.137 215.979 263.259 Q 215.979 263.41 215.949 263.834 Q 215.919 264.258 215.919 264.742 Q 215.919 265.226 215.949 265.635 Q 215.979 266.044 215.979 266.195 Q 215.828 266.346 215.616 266.634 Q 215.404 266.922 215.404 267.043 Q 215.404 267.164 215.525 267.527 Q 215.646 267.89 215.646 267.921 Q 215.798 268.677 215.798 269.449 Q 215.798 270.221 216.221 270.918 Q 216.282 270.978 216.433 271.13 Q 216.585 271.281 216.721 271.463 Q 216.857 271.644 216.978 271.811 Q 217.099 271.977 217.13 272.008 Q 217.16 272.098 217.251 272.356 Q 217.341 272.613 217.432 272.916 Q 217.523 273.218 217.599 273.461 Q 217.674 273.703 217.705 273.733 Q 217.826 273.945 218.144 274.157 Q 218.462 274.369 218.583 274.429 Q 218.795 274.429 219.34 274.475 Q 219.884 274.52 220.475 274.566 Q 221.065 274.611 221.61 274.656 Q 222.155 274.702 222.367 274.702 L 222.821 274.702 L 223.305 274.702 Q 223.366 274.702 223.699 274.656 Q 224.032 274.611 224.425 274.566 Q 224.819 274.52 225.152 274.475 Q 225.485 274.429 225.546 274.429 Q 225.606 274.369 225.773 274.369 Q 225.939 274.369 226.121 274.369 Q 226.545 274.369 227.029 274.399 Q 227.513 274.429 227.604 274.429 Q 227.725 274.369 228.073 274.248 Q 228.422 274.127 228.543 274.127 L 229.209 274.127 L 229.996 274.127 Q 230.056 274.127 230.404 274.248 Q 230.753 274.369 230.783 274.429 Q 230.874 274.429 231.161 274.399 Q 231.449 274.369 231.691 274.369 Q 231.994 274.369 232.054 274.429 Q 232.599 274.49 232.932 274.808 Q 233.265 275.126 233.447 275.565 Q 233.629 276.004 233.704 276.518 Q 233.78 277.033 233.78 277.457 L 233.78 277.638 Q 232.963 278.637 231.752 278.864 Q 230.541 279.092 229.269 279.092 Q 227.937 279.092 226.635 278.986 Q 225.334 278.88 224.032 278.743 Q 222.73 278.607 221.444 278.501 Q 220.157 278.395 218.855 278.395 L 216.797 278.395 Q 216.797 278.395 216.63 278.456 Q 216.464 278.516 216.267 278.592 Q 216.07 278.668 215.888 278.728 Q 215.707 278.789 215.646 278.789 Q 215.041 278.789 214.329 278.622 Q 213.618 278.456 212.997 278.123 Q 212.377 277.79 211.968 277.26 Q 211.559 276.73 211.559 276.004 Q 211.559 274.429 211.726 272.855 Q 211.892 271.281 211.892 269.676 Q 211.892 268.284 211.635 266.906 Q 211.378 265.529 211.317 264.167 L 211.317 263.319 L 211.317 261.23 Q 211.287 261.109 211.257 260.549 Q 211.226 259.989 211.181 259.353 Q 211.135 258.717 211.075 258.157 Q 211.014 257.597 210.984 257.446 L 210.984 257.355 L 210.984 257.143 Q 211.014 256.871 211.045 256.25 Q 211.075 255.63 211.105 254.858 Q 211.135 254.086 211.166 253.238 Q 211.196 252.39 211.226 251.603 Q 211.257 250.816 211.287 250.211 Q 211.317 249.605 211.317 249.302 Q 211.378 249.212 211.468 248.879 Q 211.559 248.546 211.559 248.394 L 211.559 248.303 L 211.559 248.152 Q 211.529 248.061 211.332 247.713 Q 211.135 247.365 210.984 247.244 L 210.984 237.92 Q 211.075 237.859 211.196 237.541 Q 211.317 237.223 211.317 237.072 Q 211.317 236.981 211.272 236.633 Q 211.226 236.285 211.151 235.906 Q 211.075 235.528 211.029 235.18 Q 210.984 234.832 210.984 234.741 L 210.984 229.504 Q 210.984 229.473 210.939 229.292 Q 210.893 229.11 210.848 228.898 Q 210.802 228.686 210.772 228.52 Q 210.742 228.353 210.742 228.353 Q 210.712 228.323 210.696 227.99 Q 210.681 227.657 210.681 227.233 Q 210.681 226.809 210.681 226.385 Q 210.681 225.962 210.681 225.719 Q 210.681 225.538 210.681 225.159 Q 210.681 224.781 210.681 224.372 Q 210.681 223.964 210.696 223.615 Q 210.712 223.267 210.742 223.116 Q 211.135 222.571 211.605 222.329 Q 212.074 222.087 212.589 222.011 Q 213.103 221.935 213.648 221.935 Q 214.193 221.935 214.768 221.905 Q 214.859 221.905 215.177 221.86 Q 215.495 221.814 215.828 221.769 Q 216.161 221.723 216.448 221.678 Q 216.736 221.633 216.797 221.633 L 217.705 221.633 L 220.096 221.633 Q 220.127 221.633 220.248 221.587 Q 220.369 221.542 220.505 221.481 Q 220.641 221.421 220.762 221.375 Q 220.883 221.33 220.883 221.33 Q 221.065 221.3 221.655 221.254 Q 222.246 221.209 222.942 221.163 Q 223.638 221.118 224.304 221.088 Q 224.97 221.057 225.334 221.057 L 225.879 221.057 L 227.392 221.057 Q 227.453 220.997 227.786 220.876 Q 228.119 220.755 228.179 220.755 L 228.543 220.755 L 228.755 220.755 Q 228.906 220.755 229.254 220.8 Q 229.602 220.845 229.965 220.891 Q 230.329 220.936 230.662 220.982 Q 230.995 221.027 231.146 221.057 Z" style="fill: rgb(51, 51, 51);"/>
  <path d="M 393.304 278.789 Q 392.911 278.698 392.82 278.426 Q 392.729 278.153 392.729 277.82 L 392.729 277.426 Q 392.729 276.73 392.775 276.2 Q 392.82 275.671 393.093 275.005 Q 393.123 274.884 393.274 274.762 Q 393.426 274.641 393.622 274.581 Q 393.819 274.52 393.986 274.475 Q 394.152 274.429 394.213 274.429 Q 395.272 274.217 396.211 274.172 Q 397.149 274.127 398.118 274.127 L 399.692 274.127 Q 399.934 273.975 400.131 273.915 Q 400.328 273.854 400.54 273.854 L 400.843 273.854 Q 401.539 273.854 402.144 274.006 Q 402.75 274.157 403.355 274.157 Q 403.507 274.157 403.794 274.157 Q 404.082 274.157 404.142 274.127 Q 404.415 274.127 404.839 274.081 Q 405.262 274.036 405.671 273.99 Q 406.08 273.945 406.398 273.9 Q 406.716 273.854 406.776 273.854 Q 406.837 273.824 407.003 273.688 Q 407.17 273.551 407.351 273.37 Q 407.533 273.188 407.699 272.991 Q 407.866 272.795 407.927 272.704 Q 408.138 272.31 408.184 271.538 Q 408.229 270.766 408.229 270.07 L 408.229 269.404 Q 408.229 267.981 408.154 266.301 Q 408.078 264.621 407.927 263.38 Q 407.927 263.289 407.851 263.077 Q 407.775 262.865 407.669 262.608 Q 407.563 262.35 407.472 262.154 Q 407.382 261.957 407.351 261.926 L 407.351 261.442 Q 407.351 261.079 407.427 260.867 Q 407.503 260.655 407.927 260.443 L 407.927 258.415 Q 407.927 258.354 407.972 258.173 Q 408.017 257.991 408.078 257.809 Q 408.138 257.628 408.184 257.461 Q 408.229 257.295 408.229 257.264 Q 408.229 257.174 408.229 256.947 Q 408.229 256.719 408.214 256.417 Q 408.199 256.114 408.199 255.781 Q 408.199 255.448 408.199 255.145 Q 408.199 254.812 408.199 254.6 Q 408.199 254.388 408.229 254.328 Q 408.229 254.267 408.305 254.086 Q 408.381 253.904 408.487 253.722 Q 408.593 253.541 408.683 253.374 Q 408.774 253.208 408.804 253.177 L 408.804 252.996 L 408.804 252.844 Q 408.804 252.814 408.759 252.648 Q 408.714 252.481 408.653 252.284 Q 408.593 252.088 408.547 251.921 Q 408.502 251.755 408.502 251.694 L 408.502 250.453 L 408.502 249.968 Q 408.502 249.908 408.456 249.726 Q 408.411 249.545 408.365 249.348 Q 408.32 249.151 408.275 248.985 Q 408.229 248.818 408.229 248.758 L 408.229 248.515 L 408.229 248.182 Q 408.229 248.152 408.275 247.986 Q 408.32 247.819 408.365 247.622 Q 408.411 247.426 408.456 247.259 Q 408.502 247.092 408.502 247.032 L 408.502 246.881 L 408.502 246.79 Q 408.502 246.669 408.456 246.275 Q 408.411 245.882 408.365 245.443 Q 408.32 245.004 408.275 244.61 Q 408.229 244.217 408.229 244.095 Q 408.229 244.035 408.214 243.641 Q 408.199 243.248 408.184 242.748 Q 408.169 242.249 408.154 241.734 Q 408.138 241.219 408.138 240.917 Q 408.138 240.735 408.154 240.281 Q 408.169 239.827 408.184 239.312 Q 408.199 238.798 408.214 238.343 Q 408.229 237.889 408.229 237.708 Q 408.29 237.587 408.396 237.133 Q 408.502 236.678 408.502 236.557 Q 408.502 236.406 408.532 235.997 Q 408.562 235.589 408.562 235.104 Q 408.562 234.62 408.532 234.196 Q 408.502 233.772 408.502 233.621 Q 408.653 233.5 408.865 233.212 Q 409.077 232.925 409.077 232.803 Q 409.077 232.652 408.941 232.304 Q 408.804 231.956 408.804 231.895 Q 408.653 231.138 408.653 230.382 Q 408.653 229.625 408.229 228.928 Q 408.169 228.898 408.032 228.732 Q 407.896 228.565 407.76 228.368 Q 407.624 228.172 407.503 228.02 Q 407.382 227.869 407.351 227.808 Q 407.321 227.717 407.23 227.46 Q 407.139 227.203 407.049 226.915 Q 406.958 226.628 406.882 226.385 Q 406.806 226.143 406.776 226.083 Q 406.655 225.901 406.337 225.689 Q 406.019 225.477 405.898 225.417 Q 405.686 225.417 405.141 225.371 Q 404.596 225.326 404.006 225.28 Q 403.416 225.235 402.871 225.19 Q 402.326 225.144 402.114 225.144 L 401.63 225.144 L 401.176 225.144 Q 401.115 225.144 400.782 225.19 Q 400.449 225.235 400.055 225.28 Q 399.662 225.326 399.314 225.371 Q 398.966 225.417 398.905 225.417 Q 398.875 225.447 398.708 225.447 Q 398.542 225.447 398.33 225.447 Q 397.906 225.447 397.422 225.432 Q 396.937 225.417 396.877 225.417 Q 396.756 225.477 396.407 225.598 Q 396.059 225.719 395.938 225.719 L 395.242 225.719 L 394.455 225.719 Q 394.425 225.719 394.076 225.598 Q 393.728 225.477 393.668 225.417 Q 393.607 225.417 393.32 225.432 Q 393.032 225.447 392.79 225.447 Q 392.487 225.447 392.427 225.417 Q 391.882 225.356 391.549 225.038 Q 391.216 224.72 391.034 224.266 Q 390.852 223.812 390.777 223.298 Q 390.701 222.783 390.701 222.359 L 390.701 222.208 Q 391.094 221.693 391.624 221.405 Q 392.154 221.118 392.729 220.967 Q 393.304 220.815 393.94 220.785 Q 394.576 220.755 395.212 220.755 Q 396.513 220.755 397.83 220.861 Q 399.147 220.967 400.449 221.088 Q 401.751 221.209 403.037 221.315 Q 404.324 221.421 405.626 221.421 L 407.654 221.421 Q 407.684 221.421 407.836 221.36 Q 407.987 221.3 408.184 221.239 Q 408.381 221.178 408.562 221.118 Q 408.744 221.057 408.804 221.057 Q 409.41 221.057 410.121 221.224 Q 410.833 221.39 411.453 221.723 Q 412.074 222.056 412.483 222.586 Q 412.891 223.116 412.891 223.842 Q 412.891 225.417 412.74 226.976 Q 412.589 228.535 412.589 230.17 Q 412.589 231.562 412.846 232.925 Q 413.103 234.287 413.164 235.679 L 413.164 236.497 L 413.164 238.616 Q 413.194 238.767 413.224 239.297 Q 413.255 239.827 413.3 240.463 Q 413.345 241.098 413.391 241.658 Q 413.436 242.218 413.467 242.37 L 413.467 242.491 L 413.467 242.703 Q 413.436 243.006 413.406 243.611 Q 413.376 244.217 413.361 244.988 Q 413.345 245.76 413.315 246.608 Q 413.285 247.456 413.255 248.228 Q 413.224 249 413.209 249.62 Q 413.194 250.241 413.164 250.544 Q 413.103 250.634 412.997 250.967 Q 412.891 251.301 412.891 251.452 L 412.891 251.543 L 412.891 251.694 Q 412.952 251.785 413.149 252.118 Q 413.345 252.451 413.467 252.602 L 413.467 261.926 Q 413.406 261.987 413.285 262.305 Q 413.164 262.623 413.164 262.744 Q 413.164 262.835 413.209 263.183 Q 413.255 263.531 413.315 263.925 Q 413.376 264.318 413.421 264.666 Q 413.467 265.014 413.467 265.105 L 413.467 270.342 Q 413.467 270.373 413.512 270.554 Q 413.557 270.736 413.603 270.933 Q 413.648 271.13 413.694 271.296 Q 413.739 271.463 413.739 271.493 Q 413.769 271.553 413.784 271.871 Q 413.8 272.189 413.8 272.613 Q 413.8 273.037 413.8 273.461 Q 413.8 273.884 413.8 274.127 Q 413.8 274.308 413.8 274.687 Q 413.8 275.065 413.8 275.474 Q 413.8 275.883 413.784 276.246 Q 413.769 276.609 413.739 276.73 Q 413.315 277.275 412.861 277.502 Q 412.407 277.729 411.892 277.82 Q 411.378 277.911 410.833 277.911 Q 410.288 277.911 409.713 277.941 Q 409.622 277.941 409.304 277.987 Q 408.986 278.032 408.653 278.077 Q 408.32 278.123 408.017 278.168 Q 407.715 278.214 407.654 278.214 L 406.776 278.214 L 404.354 278.214 Q 404.354 278.214 404.233 278.259 Q 404.112 278.304 403.976 278.365 Q 403.84 278.426 403.719 278.471 Q 403.597 278.516 403.567 278.516 Q 403.385 278.547 402.81 278.592 Q 402.235 278.637 401.539 278.683 Q 400.843 278.728 400.161 278.759 Q 399.48 278.789 399.117 278.789 L 398.602 278.789 L 397.089 278.789 Q 397.028 278.819 396.695 278.955 Q 396.362 279.092 396.302 279.092 L 395.938 279.092 L 395.726 279.092 Q 395.575 279.061 395.227 279.016 Q 394.879 278.97 394.515 278.925 Q 394.152 278.88 393.804 278.834 Q 393.456 278.789 393.304 278.789 Z" style="fill: rgb(51, 51, 51);"/>
</svg>
